<svg width="200" height="120" viewBox="0 0 200 120" fill="none" xmlns="http://www.w3.org/2000/svg">
<path d="M120.106 57.3187C120.128 60.5162 121.078 63.6373 122.835 66.2977C124.593 68.958 127.083 71.0416 130 72.292C128.826 76.0301 127.112 79.5733 124.916 82.8079C121.836 87.3191 118.649 91.8035 113.622 91.9112C108.699 91.9984 107.105 88.9611 101.468 88.9676C95.8313 88.9742 94.0711 91.8232 89.3976 91.9951C84.5407 92.1801 80.8538 87.1307 77.7536 82.6364C71.42 73.4559 66.5864 56.693 73.0867 45.3394C74.6194 42.5995 76.8291 40.3068 79.5005 38.6844C82.1719 37.0621 85.2141 36.1654 88.3308 36.0817C93.1011 35.9807 97.5813 39.2842 100.495 39.2842C103.409 39.2842 108.872 35.318 114.609 35.8899C117.262 35.9874 119.857 36.7003 122.193 37.9733C124.53 39.2462 126.544 41.045 128.08 43.2301C125.676 44.7083 123.684 46.7779 122.29 49.2449C120.895 51.7118 120.144 54.4956 120.106 57.3355V57.3187ZM110.825 29.8144C113.605 26.5448 114.986 22.2959 114.665 18C110.473 18.4072 106.59 20.4127 103.812 23.6078C102.429 25.1491 101.371 26.9574 100.701 28.9234C100.031 30.8894 99.7637 32.9722 99.9148 35.0455C102.01 35.0744 104.085 34.6165 105.978 33.7071C107.87 32.7977 109.53 31.4612 110.829 29.801" fill="black"/>
</svg>
