<svg width="200" height="120" viewBox="0 0 200 120" fill="none" xmlns="http://www.w3.org/2000/svg">
<path d="M66.1491 55.8156C65.8622 56.3036 64.8912 57.916 64.5078 58.5556C64.35 58.8242 64.1205 59.0471 63.8434 59.2008C63.5663 59.3546 63.2515 59.4337 62.9321 59.4298H56.8664L59.6886 54.7076H65.4754C65.6104 54.7072 65.7432 54.741 65.8603 54.8058C65.9775 54.8707 66.075 54.9641 66.143 55.077C66.211 55.1898 66.2471 55.3178 66.2477 55.4484C66.2484 55.579 66.2134 55.7074 66.1464 55.8208M54.9923 62.5738H60.7836C60.9178 62.5732 61.0498 62.6066 61.1662 62.6709C61.2828 62.7352 61.3798 62.828 61.4474 62.9401C61.5151 63.0521 61.551 63.1794 61.5517 63.3092C61.5523 63.4389 61.5176 63.5666 61.4511 63.6792C61.1669 64.1673 60.1985 65.7795 59.8178 66.4192C59.6591 66.6877 59.4293 66.9104 59.1521 67.0645C58.8748 67.2187 58.56 67.2985 58.2403 67.2959H52.1764L54.9923 62.5738ZM75.87 54.2513C76.0331 53.9823 76.1202 53.6765 76.1222 53.3647C76.1241 53.0529 76.041 52.7461 75.8812 52.4753C75.7213 52.2045 75.4904 51.9792 75.2117 51.8223C74.9332 51.6654 74.6166 51.5823 74.2942 51.5816H50.1191L40.7257 67.2899H19V70.4186H63.542C64.3555 70.4199 65.155 70.214 65.86 69.8215C66.5651 69.4291 67.1509 68.864 67.5584 68.1829C68.4109 66.7573 69.7512 64.5012 70.3284 63.5328C70.4541 63.3002 70.5251 63.0436 70.5365 62.7814C70.5478 62.5192 70.4991 62.2577 70.3939 62.0157C70.2887 61.7738 70.1296 61.5574 69.9279 61.3818C69.7262 61.2062 69.4869 61.0759 69.2271 61.0001C70.0203 60.9837 70.7964 60.7741 71.4835 60.3907C72.1707 60.0072 72.7467 59.4623 73.1585 58.8064C73.9331 57.5144 75.1635 55.4321 75.87 54.2513ZM93.9963 55.819C93.6847 56.3328 87.9934 65.8626 87.6791 66.396C87.5165 66.6657 87.284 66.8899 87.0046 67.0463C86.7252 67.2028 86.4086 67.2861 86.0857 67.2882H84.0957C83.9635 67.2872 83.8337 67.2537 83.7188 67.1907C83.6038 67.1277 83.5073 67.0374 83.4385 66.9281C83.3697 66.819 83.3309 66.6947 83.3256 66.5669C83.3205 66.4392 83.3491 66.3123 83.4087 66.1982C83.6539 65.7855 89.4062 56.1633 89.756 55.5741C89.9201 55.3096 90.1522 55.0905 90.4297 54.9382C90.7071 54.786 91.0206 54.7057 91.3397 54.7051H93.3367C93.4714 54.705 93.6037 54.7392 93.7202 54.8045C93.8368 54.8698 93.9334 54.9636 94.0003 55.0766C94.0673 55.1896 94.1021 55.3177 94.1014 55.4479C94.1007 55.5782 94.0644 55.7068 93.9963 55.819ZM106.399 54.2411C106.559 53.9692 106.643 53.6608 106.641 53.3476C106.639 53.0343 106.551 52.727 106.388 52.4569C106.224 52.187 105.988 51.9637 105.706 51.81C105.423 51.6562 105.104 51.5774 104.78 51.5816H83.3786C82.5731 51.5845 81.7819 51.7881 81.0812 52.1726C80.3806 52.5571 79.794 53.1096 79.3782 53.777C78.5452 55.1631 71.7571 66.5347 71.0206 67.7643C70.8626 68.0344 70.7803 68.3397 70.7822 68.6501C70.7839 68.9604 70.8696 69.2648 71.0307 69.5332C71.1918 69.8015 71.4227 70.0245 71.7005 70.1798C71.9783 70.3351 72.2932 70.4174 72.614 70.4186H94.0512C94.8583 70.4164 95.6512 70.2121 96.3524 69.8253C97.0537 69.4387 97.6394 68.8829 98.0525 68.2121C98.8058 66.9569 105.683 55.4372 106.4 54.2411M136.924 54.1956C137.072 53.925 137.147 53.6217 137.139 53.3152C137.13 53.0087 137.041 52.7095 136.878 52.4464C136.715 52.1834 136.485 51.9655 136.209 51.8139C135.934 51.6624 135.622 51.5824 135.306 51.5816H113.846C113.043 51.587 112.255 51.7942 111.56 52.1828C110.864 52.5714 110.285 53.1281 109.879 53.7984C109.124 55.0647 106.999 58.6352 106.236 59.9007C106.069 60.1697 105.98 60.477 105.977 60.7908C105.974 61.1044 106.057 61.4132 106.219 61.6852C106.381 61.9572 106.614 62.1825 106.896 62.3378C107.179 62.4931 107.498 62.5728 107.822 62.5687H120.469C120.469 62.5687 118.561 65.7555 118.196 66.3627C118.04 66.6436 117.808 66.878 117.524 67.0409C117.24 67.2038 116.916 67.289 116.586 67.2873H114.619C114.487 67.2857 114.357 67.2515 114.242 67.188C114.126 67.1245 114.03 67.0337 113.961 66.9243C113.892 66.8148 113.853 66.6902 113.847 66.5622C113.842 66.4342 113.87 66.3069 113.929 66.1922C114.164 65.777 114.688 64.9267 114.688 64.9267H103.223C103.223 64.9267 102.338 66.4106 101.563 67.7086C101.394 67.9787 101.303 68.287 101.298 68.6022C101.292 68.9174 101.373 69.2283 101.532 69.5035C101.691 69.7786 101.923 70.0082 102.203 70.1689C102.484 70.3296 102.804 70.4158 103.129 70.4186H124.553C125.373 70.4174 126.178 70.2065 126.887 69.8074C127.597 69.4082 128.184 68.8348 128.591 68.1453C129.404 66.7753 131.322 63.5431 132.152 62.1714C132.334 61.904 132.438 61.5938 132.452 61.2738C132.467 60.9538 132.39 60.6362 132.232 60.3548C132.074 60.0734 131.84 59.8389 131.555 59.6763C131.27 59.5137 130.944 59.4291 130.612 59.4315H117.971C117.971 59.4315 120.037 55.9697 120.306 55.522C120.475 55.2701 120.706 55.063 120.978 54.92C121.251 54.7769 121.556 54.7025 121.865 54.7034H123.838C123.965 54.704 124.089 54.7349 124.201 54.7932C124.312 54.8515 124.408 54.9355 124.477 55.0378C124.548 55.14 124.591 55.2573 124.602 55.3795C124.614 55.5015 124.595 55.6245 124.546 55.7377C124.344 56.0922 123.749 57.0675 123.749 57.0675H135.2C135.2 57.0675 136.284 55.2583 136.919 54.1948M181 54.7042V51.5816H141.705L130.452 70.4186H157.726L159.599 67.2925H143.769L146.59 62.5712H162.424L164.295 59.4349H148.463L151.285 54.7068L181 54.7042Z" fill="black"/>
</svg>
