<svg width="200" height="120" viewBox="0 0 200 120" fill="none" xmlns="http://www.w3.org/2000/svg">
<path d="M36.9165 56.3944C36.4843 56.2805 36.0392 56.2229 35.5922 56.2229C34.9827 56.226 34.3809 56.3584 33.8265 56.6115C33.2704 56.8576 32.7709 57.2155 32.359 57.6629C31.928 58.1433 31.5898 58.6994 31.3614 59.303C31.119 59.9358 30.9966 60.6082 31.0003 61.2858C30.9932 61.9972 31.1076 62.7045 31.3385 63.3773C31.5393 63.9712 31.8505 64.5218 32.2558 65.0001C32.6231 65.4338 33.0784 65.7844 33.5915 66.0288C34.0862 66.2695 34.6292 66.3946 35.1794 66.3945C35.7141 66.393 36.2415 66.2699 36.7216 66.0345C37.197 65.8117 37.6237 65.4971 37.9771 65.1088L38.0573 65.1259V66.0231L38.2064 66.1602L41.5887 65.9431V65.2974C41.3937 65.2917 41.1759 65.2803 40.9409 65.2574C40.7523 65.2496 40.5679 65.1988 40.402 65.1088C40.2404 65.0081 40.1064 64.8686 40.0122 64.7031C39.9205 64.5227 39.8751 64.3224 39.8803 64.1202V51.1486L39.7313 51L35.7757 51.2171V51.8228C36.1369 51.8514 36.4694 51.8915 36.7789 51.9429C37.0413 51.9805 37.293 52.072 37.5184 52.2114C37.6909 52.3447 37.8237 52.5225 37.9025 52.7257C37.9969 52.9638 38.0437 53.2182 38.0401 53.4743V56.8286C37.6835 56.641 37.3065 56.4954 36.9165 56.3944ZM38.0344 64.2516C37.7821 64.5418 37.4907 64.7957 37.1687 65.0059C36.7807 65.2469 36.3296 65.3663 35.8731 65.3488C35.4279 65.3611 34.9884 65.2462 34.6062 65.0173C34.2503 64.795 33.9502 64.494 33.7291 64.1373C33.4825 63.7557 33.304 63.3342 33.2016 62.8915C33.0937 62.4019 33.0419 61.9016 33.0468 61.4002C33.0393 60.7709 33.1106 60.1431 33.259 59.5315C33.3689 59.0374 33.5629 58.5658 33.8323 58.1373C34.0568 57.7864 34.3563 57.4898 34.7093 57.2686C35.0332 57.0688 35.4066 56.9638 35.7871 56.9658C36.0912 56.9583 36.3934 57.0128 36.6757 57.1258C36.9173 57.2253 37.1417 57.3622 37.3407 57.5315C37.5113 57.6899 37.6598 57.8706 37.7821 58.0686C37.89 58.2396 37.9748 58.424 38.0344 58.6172V64.2516Z" fill="black"/>
<path d="M45.2048 51L41.6562 51.2171V51.84C41.8339 51.8514 42.0632 51.88 42.3556 51.9257C42.5746 51.9454 42.7872 52.0096 42.9805 52.1143C43.1543 52.2331 43.2897 52.3999 43.3704 52.5943C43.4679 52.8016 43.5189 53.028 43.5194 53.2572V62.7945C43.5194 63.4288 43.5137 64.0802 43.5022 64.7602C43.4907 65.4402 43.4678 66.0174 43.4334 66.4973L44.041 66.6345L44.7634 65.5088C45.218 65.7829 45.7027 66.0034 46.208 66.1659C46.7141 66.3272 47.2419 66.41 47.7731 66.4117C48.3782 66.4085 48.9755 66.2753 49.5245 66.0208C50.0734 65.7664 50.5613 65.3969 50.9548 64.9373C51.8688 63.9491 52.3605 62.6429 52.325 61.2973C52.3837 59.9713 51.9577 58.6693 51.1267 57.6344C50.7696 57.1887 50.3154 56.8304 49.7988 56.5867C49.2823 56.3431 48.7168 56.2207 48.1458 56.2287C47.6566 56.2353 47.1743 56.3443 46.7297 56.5487C46.2264 56.7785 45.7741 57.1068 45.3997 57.5144L45.331 57.4973V51.1486L45.2048 51ZM46.2653 57.5772C46.6374 57.3929 47.0484 57.3007 47.4636 57.3087C47.9209 57.2967 48.3716 57.4199 48.7591 57.6629C49.1175 57.8973 49.416 58.2124 49.6305 58.5829C49.8663 58.9882 50.0311 59.4308 50.1178 59.8915C50.2191 60.3765 50.2709 60.8704 50.2726 61.3659C50.3302 62.4654 50.0758 63.5589 49.5388 64.5202C49.349 64.8674 49.0697 65.1575 48.7301 65.3605C48.3904 65.5634 48.0026 65.6718 47.6069 65.6745C47.2942 65.6839 46.9832 65.6254 46.6954 65.503C46.4513 65.3909 46.2268 65.2405 46.0304 65.0573C45.8474 64.883 45.6909 64.6828 45.5661 64.463C45.4662 64.2908 45.389 64.1065 45.3368 63.9144V58.3087C45.601 58.0122 45.9153 57.7646 46.2653 57.5772Z" fill="black"/>
<path d="M56.8665 56.3714L53.6504 56.5886V57.2343C53.8354 57.2463 54.0192 57.2711 54.2008 57.3086C54.3573 57.3376 54.5071 57.3957 54.6421 57.48C54.8135 57.5982 54.95 57.76 55.0377 57.9486C55.1289 58.1337 55.1779 58.3366 55.1811 58.5429V64.4858C55.1884 64.6846 55.143 64.8818 55.0492 65.0572C54.9585 65.2088 54.8126 65.3194 54.6422 65.3659C54.5059 65.4072 54.3657 65.4341 54.2238 65.4459C54.0633 65.4573 53.9085 65.4744 53.7594 65.4859V66.1316H58.8558V65.4744C58.6666 65.463 58.443 65.4401 58.1851 65.4059C57.9693 65.3839 57.7573 65.334 57.5544 65.2573C57.384 65.1986 57.2372 65.0864 57.1359 64.9373C57.0428 64.7678 56.9972 64.5762 57.0041 64.383V58.7772C57.2656 58.3471 57.6251 57.9849 58.0532 57.72C58.3733 57.5032 58.7451 57.375 59.1309 57.3486C59.1137 57.4686 59.0908 57.5829 59.0679 57.7029C59.0441 57.8311 59.0325 57.9612 59.0334 58.0915C59.0363 58.2093 59.0632 58.3254 59.1125 58.4325C59.1618 58.5396 59.2324 58.6356 59.3201 58.7143C59.4339 58.8148 59.5664 58.8918 59.7101 58.9408C59.8537 58.9899 60.0056 59.01 60.1571 59.0001C60.3065 59.0095 60.4558 58.9785 60.589 58.9101C60.7222 58.8416 60.8345 58.7385 60.9139 58.6115C61.0784 58.3457 61.1639 58.0384 61.1603 57.7257C61.1697 57.5298 61.1402 57.3339 61.0732 57.1495C61.0063 56.9651 60.9034 56.7958 60.7705 56.6515C60.6408 56.5181 60.4844 56.4134 60.3115 56.3445C60.1387 56.2756 59.9533 56.2439 59.7673 56.2515C59.2851 56.2718 58.8159 56.4132 58.4029 56.6629C57.874 56.9653 57.4133 57.3739 57.0499 57.8629H56.9983V56.5029L56.8665 56.3714Z" fill="black"/>
<path d="M65.8724 60.6687C64.9724 60.9658 64.3761 61.1715 64.0838 61.2858C63.8228 61.3888 63.5699 61.511 63.3271 61.6516C62.8092 61.9392 62.4124 62.4038 62.2092 62.9602C62.1014 63.2804 62.0491 63.6166 62.0544 63.9545C62.042 64.2769 62.0979 64.5984 62.2184 64.8978C62.339 65.1972 62.5214 65.4677 62.7538 65.6916C63.2388 66.1405 63.882 66.379 64.5424 66.3545C65.1501 66.3708 65.7531 66.2436 66.3023 65.983C66.8196 65.7123 67.2822 65.348 67.6668 64.9088H67.7241C67.7827 65.3161 67.9913 65.687 68.3089 65.9488C68.6636 66.2025 69.0944 66.3275 69.5299 66.3031C69.7972 66.3064 70.0635 66.2718 70.3211 66.2002C70.5503 66.1316 70.8197 66.0402 71.1293 65.9316V65.3088C70.9057 65.3088 70.6879 65.3031 70.4758 65.2974C70.3155 65.3025 70.1563 65.2692 70.0115 65.2002C69.8426 65.1131 69.7016 64.9805 69.6045 64.8173C69.509 64.6302 69.4636 64.4215 69.4726 64.2116C69.4726 63.3602 69.4841 62.5716 69.5013 61.8516C69.5185 61.1316 69.5299 60.3087 69.5299 59.3773C69.5485 58.8342 69.4608 58.2926 69.2719 57.783C69.1165 57.3911 68.8545 57.0505 68.5152 56.8001C68.1856 56.5569 67.8056 56.391 67.4031 56.3143C66.9298 56.2338 66.4501 56.1955 65.9699 56.2001C65.5539 56.2025 65.1406 56.266 64.7431 56.3887C64.3687 56.495 64.0102 56.6507 63.6768 56.8515C63.3617 57.0462 63.0825 57.2936 62.8513 57.5829C62.6504 57.8241 62.5373 58.1263 62.5303 58.4401C62.5268 58.7163 62.6067 58.9872 62.7595 59.2172C62.8397 59.3327 62.9483 59.4254 63.0749 59.4865C63.2014 59.5476 63.3416 59.5749 63.4819 59.5658C63.7948 59.5863 64.1034 59.4838 64.3418 59.2801C64.4353 59.2048 64.5114 59.1101 64.5649 59.0026C64.6184 58.8951 64.6478 58.7772 64.6514 58.6572C64.6498 58.42 64.619 58.184 64.5597 57.9544C64.5072 57.7661 64.4764 57.5724 64.4679 57.3772C64.626 57.2348 64.8113 57.1259 65.0126 57.0572C65.2795 56.9548 65.5636 56.9044 65.8496 56.9086C66.2078 56.8879 66.5632 56.982 66.8642 57.1772C67.0767 57.3323 67.2557 57.5287 67.3907 57.7545C67.5256 57.9803 67.6137 58.2309 67.6497 58.4915C67.676 58.6523 67.6932 58.8145 67.7013 58.9772V59.9429C67.1158 60.2419 66.5035 60.4849 65.8724 60.6687ZM67.7126 60.783L67.6553 64.1602C67.4048 64.4756 67.1024 64.7462 66.761 64.9602C66.3929 65.1879 65.967 65.3049 65.5342 65.2974C65.1375 65.3123 64.75 65.1754 64.4507 64.9145C64.2981 64.7577 64.1812 64.5698 64.108 64.3637C64.0348 64.1575 64.007 63.938 64.0264 63.7202C64.0173 63.3403 64.1168 62.9655 64.3131 62.6401C64.5132 62.3261 64.7768 62.0575 65.0871 61.8516C65.4531 61.6148 65.8433 61.4175 66.2508 61.263C66.6693 61.1087 67.1565 60.9487 67.7126 60.783Z" fill="black"/>
<path d="M75.1668 56.3715L71.9336 56.5886V57.2344C72.1253 57.2471 72.3152 57.2778 72.5012 57.3258C72.6619 57.3674 72.8163 57.4309 72.9597 57.5144C73.1239 57.6213 73.2597 57.7664 73.3553 57.9372C73.4528 58.1075 73.5023 58.3011 73.4986 58.4972V64.4745C73.506 64.6733 73.4606 64.8705 73.3668 65.0459C73.2761 65.1975 73.1302 65.3081 72.9598 65.3546C72.8235 65.3959 72.6833 65.4228 72.5414 65.4346C72.3808 65.446 72.226 65.4631 72.077 65.4746V66.1203H76.7721V65.4745C76.61 65.4653 76.4489 65.4424 76.2906 65.406C76.1455 65.3736 76.005 65.3237 75.8721 65.2574C75.7021 65.1888 75.5579 65.0689 75.4593 64.9145C75.3629 64.7461 75.3153 64.5542 75.3217 64.3602V58.8402C75.3847 58.7487 75.4879 58.6116 75.6141 58.4344C75.7508 58.2505 75.9129 58.087 76.0956 57.9487C76.3315 57.7721 76.5923 57.6315 76.8696 57.5315C77.1604 57.4291 77.4671 57.3789 77.7754 57.383C77.9989 57.3796 78.2202 57.4279 78.4221 57.524C78.6239 57.6202 78.8009 57.7616 78.9392 57.9372C79.275 58.3875 79.4395 58.9425 79.4034 59.503V64.4745C79.4108 64.6733 79.3653 64.8705 79.2716 65.0459C79.1808 65.1975 79.035 65.3081 78.8646 65.3546C78.7377 65.3944 78.6071 65.4212 78.4748 65.4346C78.3314 65.446 78.1881 65.4631 78.0391 65.4746V66.1203H82.6425V65.4745C82.4824 65.467 82.3232 65.446 82.1666 65.4117C82.0283 65.3767 81.8924 65.3328 81.7596 65.2802C81.5905 65.2184 81.4484 65.099 81.3583 64.9431C81.272 64.7694 81.2306 64.5768 81.238 64.3831V58.8287C81.3252 58.6841 81.4209 58.5449 81.5246 58.4116C81.6615 58.2363 81.8215 58.0806 82.0004 57.9487C82.2352 57.7717 82.4964 57.6328 82.7744 57.5373C83.064 57.4376 83.3683 57.3874 83.6744 57.3887C83.8979 57.3859 84.119 57.4345 84.3208 57.5306C84.5225 57.6267 84.6995 57.7678 84.8382 57.943C85.1741 58.3932 85.3387 58.9482 85.3026 59.5087V64.4802C85.31 64.679 85.2644 64.8762 85.1707 65.0517C85.08 65.2032 84.9341 65.3138 84.7637 65.3603C84.6312 65.4011 84.4948 65.4279 84.3567 65.4403C84.2019 65.4517 84.0528 65.4688 83.9038 65.4803V66.126H88.6047V65.4745C88.4391 65.4646 88.2744 65.4436 88.1117 65.4117C87.9591 65.3811 87.8094 65.3371 87.6645 65.2802C87.4953 65.2184 87.3533 65.099 87.2632 64.9431C87.1768 64.7694 87.1355 64.5768 87.1429 64.3831V59.4915C87.2122 58.6106 86.9573 57.7348 86.4261 57.0287C86.1813 56.7617 85.8809 56.5516 85.5462 56.4134C85.2114 56.2751 84.8503 56.2121 84.4884 56.2287C84.1102 56.2238 83.7334 56.2758 83.3706 56.383C83.0589 56.4746 82.7631 56.6133 82.4934 56.7944C82.2404 56.9576 82.0025 57.1431 81.7825 57.3487C81.6048 57.5201 81.3984 57.7201 81.1635 57.9487C80.9571 57.4625 80.6222 57.0416 80.1946 56.7315C79.7259 56.3903 79.1575 56.2135 78.578 56.2287C78.2016 56.2254 77.8269 56.2774 77.4657 56.3829C77.1613 56.4687 76.8714 56.5997 76.6058 56.7715C76.3733 56.9343 76.153 57.1139 75.9465 57.3087C75.7115 57.5315 75.5108 57.7201 75.3503 57.8858H75.2815V56.5087L75.1668 56.3715Z" fill="black"/>
<path d="M93.6615 60.6687C92.7615 60.9658 92.1653 61.1715 91.8729 61.2858C91.6119 61.3888 91.359 61.511 91.1161 61.6516C90.5983 61.9391 90.2014 62.4038 89.9983 62.9602C89.8905 63.2804 89.8381 63.6166 89.8435 63.9545C89.8311 64.2769 89.887 64.5984 90.0075 64.8978C90.128 65.1972 90.3104 65.4677 90.5429 65.6916C91.0278 66.1405 91.671 66.379 92.3315 66.3545C92.9392 66.3708 93.5421 66.2435 94.0914 65.983C94.6087 65.7123 95.0712 65.348 95.4558 64.9088H95.5131C95.5718 65.3161 95.7803 65.687 96.0979 65.9487C96.4526 66.2025 96.8835 66.3275 97.319 66.3031C97.5862 66.3064 97.8526 66.2718 98.1101 66.2002C98.3394 66.1316 98.6088 66.0402 98.9184 65.9316V65.3088C98.6948 65.3088 98.477 65.3031 98.2648 65.2973C98.1046 65.3025 97.9454 65.2692 97.8005 65.2001C97.6317 65.1131 97.4907 64.9805 97.3936 64.8173C97.2981 64.6302 97.2526 64.4215 97.2617 64.2116C97.2617 63.3602 97.2732 62.5716 97.2904 61.8516C97.3076 61.1315 97.319 60.3087 97.319 59.3773C97.3375 58.8341 97.2499 58.2926 97.061 57.783C96.9057 57.3911 96.6435 57.0506 96.3044 56.8001C95.9747 56.5569 95.5946 56.391 95.1922 56.3143C94.7188 56.2338 94.2392 56.1955 93.759 56.2001C93.3431 56.2025 92.9297 56.266 92.5323 56.3887C92.1579 56.495 91.7993 56.6507 91.4659 56.8515C91.1508 57.0462 90.8716 57.2936 90.6404 57.5829C90.4396 57.8241 90.3264 58.1263 90.3194 58.4401C90.316 58.7163 90.3958 58.9872 90.5487 59.2172C90.6288 59.3327 90.7374 59.4254 90.8639 59.4865C90.9906 59.5476 91.1308 59.5749 91.271 59.5658C91.5839 59.5863 91.8925 59.4838 92.131 59.2801C92.2245 59.2048 92.3006 59.1101 92.3541 59.0026C92.4074 58.8951 92.437 58.7772 92.4406 58.6572C92.4389 58.42 92.4081 58.184 92.3488 57.9544C92.2962 57.7661 92.2655 57.5724 92.2571 57.3772C92.4151 57.2348 92.6004 57.1259 92.8016 57.0572C93.0687 56.9548 93.3527 56.9044 93.6386 56.9086C93.9968 56.8879 94.3523 56.982 94.6534 57.1772C94.8658 57.3323 95.0449 57.5287 95.1798 57.7545C95.3147 57.9803 95.4028 58.2309 95.4387 58.4915C95.4651 58.6523 95.4823 58.8145 95.4903 58.9772V59.9429C94.9039 60.2398 94.2918 60.4827 93.6615 60.6687ZM95.496 60.783L95.4386 64.1602C95.1881 64.4756 94.8857 64.7462 94.5444 64.9602C94.1762 65.1879 93.7503 65.3049 93.3175 65.2974C92.9209 65.3123 92.5334 65.1754 92.2341 64.9145C92.0815 64.7577 91.9646 64.5698 91.8914 64.3637C91.8182 64.1575 91.7904 63.938 91.8098 63.7202C91.8007 63.3403 91.9001 62.9656 92.0965 62.6402C92.2966 62.3261 92.5602 62.0575 92.8704 61.8516C93.2365 61.6148 93.6265 61.4175 94.0342 61.263C94.4584 61.1087 94.94 60.9487 95.496 60.783Z" fill="black"/>
<path d="M102.981 56.3715L99.7656 56.5887V57.2344C99.9506 57.2464 100.134 57.2712 100.316 57.3087C100.472 57.3377 100.622 57.3958 100.757 57.4801C100.925 57.5946 101.061 57.7499 101.153 57.9316C101.248 58.1213 101.297 58.3308 101.296 58.543V64.4859C101.303 64.6847 101.258 64.8819 101.164 65.0573C101.073 65.2089 100.928 65.3195 100.757 65.3659C100.621 65.4074 100.481 65.4342 100.339 65.4459C100.178 65.4574 100.024 65.4745 99.8745 65.486V66.1317H104.604V65.4745C104.438 65.4637 104.274 65.4408 104.111 65.406C103.956 65.3755 103.806 65.3256 103.664 65.2574C103.496 65.191 103.353 65.0755 103.251 64.926C103.153 64.7602 103.106 64.5697 103.113 64.3774V58.8402C103.171 58.7374 103.268 58.6002 103.394 58.423C103.539 58.2347 103.714 58.0707 103.91 57.9373C104.149 57.7743 104.407 57.6418 104.678 57.543C104.984 57.4326 105.306 57.3784 105.63 57.383C105.856 57.3807 106.08 57.4294 106.284 57.5253C106.489 57.6213 106.669 57.7621 106.811 57.9373C107.163 58.3868 107.337 58.9506 107.298 59.5202V64.4688C107.306 64.6676 107.261 64.8647 107.167 65.0402C107.076 65.1918 106.93 65.3024 106.76 65.3488C106.615 65.3921 106.464 65.4189 106.312 65.4288C106.135 65.4403 105.968 65.4574 105.819 65.4688V66.1146H110.543V65.4745C110.384 65.4665 110.225 65.4473 110.068 65.4174C109.929 65.3811 109.793 65.3353 109.66 65.2802C109.495 65.2187 109.354 65.1043 109.259 64.9546C109.171 64.7834 109.13 64.5924 109.139 64.4003V59.3888C109.181 58.5693 108.944 57.7598 108.468 57.0916C108.218 56.7939 107.899 56.5604 107.541 56.4104C107.182 56.2603 106.792 56.198 106.404 56.2287C106.022 56.2239 105.641 56.2758 105.275 56.383C104.972 56.4733 104.683 56.604 104.415 56.7716C104.179 56.9309 103.957 57.1086 103.75 57.303C103.515 57.5201 103.32 57.7087 103.159 57.863H103.108V56.503L102.981 56.3715Z" fill="black"/>
<path d="M112.933 53.5315V56.5315H111.15V57.4687H112.893V63.9888C112.856 64.6034 113.03 65.2122 113.386 65.7145C113.607 65.938 113.875 66.109 114.17 66.2148C114.467 66.3206 114.782 66.3587 115.094 66.326C115.565 66.336 116.035 66.2743 116.487 66.1431C116.866 66.0231 117.267 65.8746 117.691 65.6974V64.9831C117.472 65.0455 117.248 65.0839 117.021 65.0974C116.705 65.126 116.464 65.1431 116.298 65.1431C116.01 65.1548 115.723 65.1041 115.455 64.9945C115.257 64.9061 115.092 64.7558 114.985 64.566C114.869 64.3459 114.797 64.1052 114.773 63.8574C114.741 63.5213 114.726 63.1837 114.727 62.8459V57.463H117.479V56.5258H114.704V53.5315H112.933Z" fill="black"/>
<path d="M127.002 60.3545C127.005 59.8098 126.932 59.2673 126.784 58.7431C126.648 58.2723 126.42 57.8333 126.113 57.4516C125.782 57.0561 125.361 56.7447 124.886 56.5431C124.312 56.3076 123.695 56.1947 123.075 56.2116C122.431 56.2024 121.794 56.3474 121.217 56.6344C120.682 56.9066 120.209 57.2882 119.83 57.7545C119.443 58.2406 119.146 58.7921 118.953 59.383C118.755 59.9762 118.654 60.5976 118.654 61.2231C118.65 61.8943 118.745 62.5625 118.935 63.206C119.107 63.8034 119.396 64.3608 119.784 64.846C120.174 65.3234 120.668 65.7046 121.229 65.9603C121.87 66.2462 122.568 66.3867 123.27 66.3718C124.101 66.387 124.917 66.1476 125.609 65.686C126.295 65.2189 126.855 64.5886 127.237 63.8517L126.549 63.4346C126.266 64.0156 125.847 64.5195 125.328 64.9032C124.878 65.1837 124.356 65.3249 123.826 65.3089C123.317 65.3228 122.813 65.2109 122.358 64.9832C121.954 64.7748 121.611 64.4658 121.36 64.0861C121.089 63.6712 120.895 63.2104 120.787 62.726C120.66 62.1616 120.599 61.5844 120.604 61.006H127.002V60.3545ZM120.604 60.1774C120.591 59.3281 120.849 58.497 121.343 57.8059C121.541 57.5397 121.799 57.3238 122.096 57.1759C122.392 57.0279 122.72 56.9521 123.052 56.9545C123.41 56.9382 123.763 57.0363 124.061 57.2344C124.322 57.4252 124.535 57.6761 124.68 57.9659C124.831 58.2957 124.931 58.6463 124.978 59.0059C125.038 59.3916 125.068 59.7814 125.07 60.1717L120.604 60.1774Z" fill="black"/>
<path d="M133.324 56.8114C133.341 56.2457 133.364 55.7486 133.382 55.3257H132.568C132.235 55.6892 131.825 55.9759 131.37 56.1657C130.774 56.4346 130.126 56.5673 129.473 56.5543H128.934V57.3771H131.376V64.2344C131.393 64.4649 131.337 64.695 131.215 64.8915C131.098 65.0442 130.935 65.1561 130.751 65.2115C130.468 65.2789 130.18 65.3229 129.891 65.343C129.478 65.383 129.169 65.4115 128.974 65.4287V66.1201H135.577V65.4287C135.29 65.4113 135.003 65.3789 134.717 65.3315C134.435 65.2976 134.155 65.2324 133.886 65.1372C133.703 65.0557 133.55 64.9175 133.45 64.7429C133.347 64.5561 133.296 64.345 133.301 64.1315V58.3314C133.296 57.8858 133.301 57.3771 133.324 56.8114Z" fill="black"/>
<path d="M139.63 68.6974L138.747 68.8517L138.924 69.7318C140.035 69.5968 141.114 69.268 142.112 68.7604C143.025 68.2983 143.843 67.6704 144.525 66.9089C145.205 66.1401 145.731 65.2477 146.073 64.2802C146.438 63.2551 146.62 62.174 146.612 61.0859C146.696 59.5743 146.236 58.0825 145.317 56.8801C144.894 56.3708 144.36 55.9657 143.755 55.6961C143.151 55.4266 142.493 55.2999 141.831 55.3258C141.204 55.3118 140.579 55.4273 139.999 55.6653C139.417 55.9032 138.892 56.2584 138.454 56.7087C138.008 57.1545 137.657 57.6863 137.423 58.2716C137.188 58.8571 137.075 59.484 137.09 60.1145C137.071 60.6867 137.166 61.257 137.369 61.7925C137.571 62.328 137.878 62.8181 138.271 63.2345C138.619 63.6257 139.047 63.9384 139.525 64.1521C140.004 64.3658 140.522 64.4757 141.046 64.4745C141.66 64.4847 142.271 64.378 142.846 64.1603C143.431 63.9178 143.971 63.5799 144.445 63.1603C144.271 64.446 143.742 65.6575 142.914 66.6575C142.034 67.6338 140.895 68.3411 139.63 68.6974ZM143.304 63.0745C142.862 63.2626 142.386 63.3579 141.906 63.3546C141.527 63.3652 141.152 63.284 140.811 63.1178C140.47 62.9516 140.175 62.7054 139.951 62.4003C139.433 61.6586 139.177 60.7661 139.222 59.8631C139.169 58.891 139.42 57.9263 139.939 57.103C140.143 56.7912 140.422 56.5361 140.751 56.3612C141.079 56.1863 141.447 56.0975 141.82 56.103C142.236 56.1126 142.642 56.2387 142.99 56.4669C143.339 56.6952 143.617 57.0165 143.792 57.3945C144.346 58.5021 144.605 59.7344 144.543 60.9716C144.543 61.1031 144.537 61.2345 144.531 61.3602C144.525 61.4917 144.52 61.6003 144.52 61.6917C144.522 61.8024 144.516 61.9132 144.503 62.0231C144.494 62.0742 144.488 62.1257 144.485 62.1774C144.165 62.5622 143.761 62.869 143.304 63.0745Z" fill="black"/>
<path d="M154.69 60.5372C154.475 60.8284 154.221 61.0881 153.933 61.3086C153.555 61.579 153.156 61.8197 152.741 62.0287C152.277 62.2744 151.864 62.5029 151.497 62.7144C151.13 62.9201 150.815 63.1144 150.557 63.2915C150.127 63.583 149.754 63.8572 149.439 64.1086C149.174 64.3127 148.928 64.5402 148.705 64.7887V66.1259H157.884V64.3887H150.35C150.73 64.0885 151.133 63.8191 151.554 63.583C152.042 63.3087 152.575 63.0401 153.142 62.7887C154.094 62.3658 154.805 62.0344 155.269 61.8001C155.713 61.5768 156.123 61.29 156.485 60.9487C156.79 60.662 157.024 60.3077 157.167 59.9144C157.311 59.4973 157.382 59.0585 157.379 58.6172C157.391 58.1539 157.29 57.6944 157.084 57.279C156.879 56.8637 156.574 56.505 156.198 56.2344C155.474 55.7838 154.661 55.4953 153.815 55.3888C152.968 55.2823 152.109 55.3602 151.296 55.6172C150.813 55.773 150.363 56.0149 149.966 56.3315C149.625 56.6013 149.338 56.9351 149.123 57.3143C148.938 57.6361 148.837 58 148.831 58.3715C148.813 58.6937 148.906 59.0124 149.095 59.2743C149.185 59.3862 149.301 59.475 149.433 59.5336C149.564 59.5922 149.708 59.6189 149.852 59.6115C150.182 59.6354 150.51 59.5334 150.769 59.3259C150.864 59.2446 150.941 59.144 150.995 59.0307C151.048 58.9173 151.076 58.7939 151.078 58.6686C151.077 58.3856 151.042 58.1036 150.975 57.8287C150.906 57.5429 150.849 57.2972 150.803 57.0858C151.013 56.7777 151.311 56.539 151.657 56.4001C152.037 56.2332 152.447 56.1475 152.861 56.1486C153.475 56.1219 154.076 56.3257 154.547 56.72C154.779 56.9526 154.958 57.2331 155.071 57.5421C155.185 57.851 155.228 58.1809 155.2 58.5086C155.214 58.9435 155.168 59.3781 155.063 59.8001C154.975 60.0625 154.849 60.3108 154.69 60.5372Z" fill="black"/>
<path d="M166.711 58.7829C167.46 58.4714 168.115 57.9714 168.614 57.3315C169.027 56.7954 169.255 56.1395 169.262 55.4629C169.271 54.9775 169.171 54.4963 168.969 54.055C168.766 53.6138 168.466 53.2239 168.092 52.9143C167.232 52.21 166.142 51.8478 165.032 51.8972C163.857 51.8694 162.708 52.249 161.781 52.9714C161.358 53.2762 161.015 53.6773 160.779 54.1414C160.543 54.6055 160.42 55.1193 160.422 55.6401C160.416 56.3161 160.633 56.9753 161.042 57.5144C161.548 58.1482 162.183 58.668 162.905 59.0401C162.046 59.3362 161.268 59.8249 160.629 60.4688C160.113 61.0454 159.838 61.7981 159.861 62.5717C159.849 63.106 159.959 63.636 160.185 64.1205C160.411 64.6051 160.745 65.0312 161.162 65.3659C162.152 66.1279 163.381 66.5127 164.63 66.4517C165.976 66.516 167.299 66.0963 168.362 65.2688C168.8 64.9392 169.156 64.513 169.403 64.0234C169.65 63.5339 169.78 62.9941 169.783 62.4459C169.812 61.6708 169.555 60.9122 169.061 60.3145C168.4 59.6373 167.598 59.1144 166.711 58.7829ZM162.36 55.1715C162.351 54.8421 162.409 54.5145 162.531 54.2081C162.652 53.9018 162.833 53.623 163.065 53.3885C163.555 52.9214 164.208 52.6633 164.885 52.6686C165.562 52.6739 166.211 52.9424 166.694 53.4172C166.934 53.6772 167.121 53.9822 167.243 54.3147C167.364 54.6471 167.42 55.0005 167.404 55.3543C167.418 55.9808 167.309 56.604 167.083 57.1886C166.867 57.7021 166.497 58.1356 166.023 58.4286C164.993 58.0775 164.028 57.5623 163.163 56.9029C162.909 56.6918 162.705 56.427 162.567 56.1275C162.428 55.8281 162.357 55.5016 162.36 55.1715ZM167.026 64.8859C166.739 65.1534 166.402 65.3605 166.034 65.4951C165.666 65.6296 165.274 65.6886 164.883 65.6688C164.464 65.687 164.048 65.6176 163.659 65.4651C163.27 65.3125 162.917 65.0802 162.624 64.783C162.335 64.4719 162.112 64.1066 161.966 63.7082C161.821 63.3099 161.755 62.8867 161.775 62.463C161.765 61.8369 161.917 61.2188 162.217 60.6687C162.543 60.1137 163.022 59.6652 163.598 59.3772C164.263 59.6573 164.883 59.9315 165.456 60.2001C165.926 60.4116 166.374 60.6721 166.791 60.9773C167.101 61.2033 167.361 61.4914 167.553 61.823C167.736 62.1532 167.827 62.526 167.817 62.903C167.829 63.2702 167.765 63.6358 167.628 63.977C167.492 64.3182 167.288 64.6276 167.026 64.8859Z" fill="black"/>
</svg>
