<svg width="200" height="120" viewBox="0 0 200 120" fill="none" xmlns="http://www.w3.org/2000/svg">
<path fill-rule="evenodd" clip-rule="evenodd" d="M83.8204 55.0893C86.7655 55.0893 88.1642 54.5795 88.1642 53.5599V48.4616C88.1642 47.442 86.7655 46.9321 83.8204 46.9321H77.4902C74.5451 46.9321 73.1465 47.442 73.1465 48.4616V53.5599C73.1465 54.5795 74.5451 55.0893 77.4902 55.0893H83.8204ZM83.8204 57.5008H77.4902C72.222 57.5008 69.5879 56.1412 69.5879 53.3712V48.6622C69.5879 45.8887 72.222 44.5292 77.4902 44.5292H83.8204C89.0886 44.5292 91.7227 45.8887 91.7227 48.6622V53.3712C91.7227 56.1446 89.0886 57.5008 83.8204 57.5008Z" fill="black"/>
<path fill-rule="evenodd" clip-rule="evenodd" d="M151.602 55.0894H145.274C142.329 55.0894 140.929 54.5796 140.929 53.5599V48.4617C140.929 47.4421 142.329 46.9322 145.274 46.9322H151.602C154.549 46.9322 155.946 47.4421 155.946 48.4617V53.5599C155.946 54.5864 154.549 55.0894 151.602 55.0894ZM151.602 57.5009C156.87 57.5009 159.506 56.1413 159.506 53.3713V48.6622C159.506 45.8888 156.872 44.5309 151.602 44.5309H145.274C140.005 44.5309 137.371 45.8905 137.371 48.6622V53.3713C137.371 56.1447 140.005 57.5009 145.274 57.5009H151.602Z" fill="black"/>
<path fill-rule="evenodd" clip-rule="evenodd" d="M65.9377 53.3101V50.054C65.9377 49.3488 65.5009 49.0343 64.6206 49.0343H56.9054C56.5635 49.0466 56.2399 49.191 56.0024 49.4371C55.7649 49.6832 55.6323 50.0119 55.6323 50.3539C55.6323 50.696 55.7649 51.0245 56.0024 51.2707C56.2399 51.5169 56.5635 51.6612 56.9054 51.6735H62.1837V53.4103C62.1837 53.9354 61.5039 54.4435 60.3484 54.7512C59.5373 54.9557 58.7016 55.0461 57.8656 55.0196H49.3838C45.9997 55.0196 44.3071 54.461 44.306 53.344V45.0832C44.306 43.9667 46.3283 43.4501 50.3661 43.4501H52.7452C53.6584 43.4501 54.1149 43.0411 54.1149 42.2231C54.1149 41.4051 53.6595 40.999 52.7486 41.0046H49.3616C47.4613 40.9606 45.5665 41.2299 43.7536 41.8016C41.8503 42.4559 40.5469 43.6047 40.5469 45.0832V53.3678C40.5469 54.9097 41.5966 56.0302 43.6959 56.7292C45.5215 57.286 47.4247 57.5459 49.3328 57.4991H57.8604C59.6614 57.5441 61.455 57.2525 63.149 56.6392C65.0081 55.9107 65.9377 54.7987 65.9377 53.3032" fill="black"/>
<path fill-rule="evenodd" clip-rule="evenodd" d="M117.388 47.4334C117.388 48.7641 115.721 49.1498 112.459 49.1498H99.1876V43.4483H112.456C115.721 43.4483 117.385 43.8342 117.385 45.1647L117.388 47.4334ZM117.869 41.698C116.107 41.2095 114.285 40.976 112.456 41.0046H96.5042C96.221 41.0042 95.9492 41.1161 95.7485 41.3159C95.5477 41.5156 95.4344 41.787 95.4336 42.0701V56.4182C95.4336 57.1405 95.8857 57.4991 96.7523 57.4991H97.8688C98.7355 57.4991 99.1876 57.1405 99.1876 56.4182V51.5936H112.456C114.35 51.6425 116.24 51.3813 118.049 50.8204C120.1 50.0709 121.142 48.8763 121.142 47.2516V44.6651C121.142 43.36 120.065 42.3641 117.869 41.698Z" fill="black"/>
<path fill-rule="evenodd" clip-rule="evenodd" d="M133.564 44.5308C131.338 44.2987 129.089 44.5485 126.967 45.2633C126.254 45.4762 125.621 45.9026 125.157 46.4853C124.692 47.068 124.416 47.779 124.367 48.5228V56.4692C124.367 57.1489 124.798 57.4888 125.623 57.4888H126.685C127.512 57.4888 127.941 57.1489 127.941 56.4692V48.5228C127.941 47.413 129.323 46.9423 132.06 46.9423H133.59C134.484 46.9423 134.909 46.5361 134.909 45.7357C134.909 44.9353 134.458 44.5308 133.564 44.5308Z" fill="black"/>
<path fill-rule="evenodd" clip-rule="evenodd" d="M40.5469 78.3915H66.3591V61.5623H40.5469V78.3915Z" fill="black"/>
<path fill-rule="evenodd" clip-rule="evenodd" d="M71.5918 78.3915H97.404V61.5623H71.5918V78.3915Z" fill="black"/>
<path fill-rule="evenodd" clip-rule="evenodd" d="M102.643 78.3915H128.453V61.5623H102.643V78.3915Z" fill="black"/>
<path fill-rule="evenodd" clip-rule="evenodd" d="M133.693 78.3915H159.504V61.5623H133.693V78.3915Z" fill="black"/>
</svg>
