<svg width="200" height="120" viewBox="0 0 200 120" fill="none" xmlns="http://www.w3.org/2000/svg">
<g clip-path="url(#clip0_627_2497)">
<path d="M19 53.4298H22.1034V59.0024H22.1447C22.4445 58.4884 22.8729 58.0586 23.389 57.7538C23.9051 57.4489 24.4918 57.2792 25.0932 57.2606C27.8404 57.2606 29.6976 58.3791 29.6976 61.3043V69.121H26.6006V62.1874C26.6006 61.1509 26.4642 59.9251 24.3616 59.9251C22.4779 59.9251 22.1052 60.939 22.1052 61.8843V69.1192H19V53.4298Z" fill="black"/>
<path d="M39.1463 69.1183C38.9097 68.7769 38.793 68.3685 38.8139 67.9556C38.33 68.4872 37.7362 68.9106 37.0723 69.1974C36.4084 69.4841 35.6899 69.6276 34.9651 69.618C32.5301 69.618 31.3315 68.283 31.4185 66.02C31.4909 64.3847 32.1511 62.7936 34.8982 62.3416C35.9587 62.2914 37.0085 62.1096 38.0228 61.8004C38.2805 61.6954 38.4959 61.5097 38.636 61.272C38.776 61.0343 38.8327 60.7579 38.7974 60.4853C38.7974 59.7538 38.1747 59.4291 36.7599 59.4291C34.9862 59.4291 34.7654 60.4853 34.7206 61.3232H31.7958C31.8434 57.6007 35.1171 57.2606 36.7599 57.2606C37.7225 57.2392 38.6814 57.384 39.5932 57.6882C40.2655 57.9263 40.8399 58.3753 41.2278 58.9662C41.6158 59.5571 41.7959 60.2572 41.7406 60.9589V67.3324C41.7478 67.597 41.8128 67.857 41.9311 68.0947C42.0494 68.3323 42.2184 68.5421 42.4264 68.7097V69.1201L39.1463 69.1183ZM38.7947 63.6287C37.8788 64.0021 36.904 64.2157 35.9138 64.2602C35.6923 64.2804 35.4779 64.3477 35.2855 64.4576C35.0931 64.5674 34.9271 64.717 34.7991 64.8962C34.6712 65.0753 34.5841 65.2798 34.5442 65.4953C34.5043 65.7108 34.5122 65.9323 34.5676 66.1444C34.7417 66.8354 35.3003 67.3306 36.6244 67.1167C38.4659 66.8354 38.7984 65.5834 38.7984 64.2971L38.7947 63.6287Z" fill="black"/>
<path d="M44.5547 57.451H47.6572V59.7105H47.7011C47.7904 59.3209 47.9652 58.9554 48.2133 58.6395C48.4613 58.3237 48.7766 58.0652 49.137 57.8822C49.4418 57.6322 49.7964 57.4477 50.1778 57.3405C50.5592 57.2333 50.9592 57.2058 51.3521 57.2598V60.3337C50.0243 60.1831 48.0307 60.0118 47.6572 62.5509V69.1192H44.5547V57.451Z" fill="black"/>
<path d="M53.5059 69.1183V57.451H56.6066V59.1954H56.6469C57.623 57.8145 58.5103 57.0207 60.3272 57.2606C61.8518 57.4519 62.2777 57.9696 63.1596 58.9573C63.9123 57.9272 64.8445 56.9801 67.3655 57.2606C69.7629 57.6017 70.4222 59.1549 70.4222 61.0238V69.1193H67.3234V61.0915C67.2775 60.2291 66.5084 59.9071 65.7739 59.8656C65.4819 59.844 65.1884 59.8827 64.9123 59.9794C64.6363 60.076 64.3839 60.2285 64.1712 60.4271C63.9587 60.6257 63.7906 60.8658 63.6778 61.1322C63.5652 61.3985 63.5102 61.6852 63.5166 61.9736V69.121H60.4132V61.0933C60.3439 60.7126 60.1283 60.3729 59.8113 60.1446C59.4943 59.9163 59.1002 59.817 58.7109 59.8675C58.4268 59.8499 58.1422 59.8927 57.8763 59.9929C57.6104 60.0931 57.3694 60.2484 57.1697 60.4482C56.97 60.6482 56.8163 60.8879 56.7188 61.1514C56.6213 61.4149 56.5824 61.6958 56.6048 61.9754V69.1228L53.5059 69.1183Z" fill="black"/>
<path d="M80.0163 69.1183C79.7804 68.7765 79.6634 68.3685 79.6829 67.9556C79.1983 68.4872 78.6037 68.9106 77.9393 69.1974C77.2749 69.484 76.5558 69.6275 75.8305 69.618C73.3974 69.618 72.2014 68.2831 72.2875 66.02C72.3562 64.3847 73.0201 62.7936 75.7673 62.3417C76.8281 62.2915 77.8782 62.1097 78.8927 61.8004C79.1514 61.6966 79.3678 61.5112 79.508 61.2732C79.6482 61.0352 79.7042 60.7581 79.6674 60.4853C79.6674 59.7538 79.0447 59.4291 77.6308 59.4291C75.8561 59.4291 75.6363 60.4854 75.5906 61.3233H72.6621C72.7079 57.6007 75.9889 57.2606 77.6271 57.2606C78.5894 57.2391 79.548 57.3838 80.4595 57.6882C81.1321 57.926 81.7067 58.3749 82.0949 58.9659C82.483 59.5569 82.6633 60.2571 82.6078 60.9589V67.3324C82.6143 67.597 82.6787 67.8571 82.7967 68.0948C82.9149 68.3325 83.0837 68.5423 83.2919 68.7098V69.1201L80.0163 69.1183ZM79.6638 63.6287C78.7487 64.0018 77.7749 64.2154 76.7856 64.2602C76.563 64.2793 76.3474 64.3461 76.1536 64.4557C75.9599 64.5654 75.7929 64.7154 75.6641 64.8952C75.5353 65.0751 75.4479 65.2804 75.408 65.497C75.3681 65.7135 75.3767 65.936 75.4331 66.149C75.6107 66.8399 76.1657 67.3351 77.4935 67.1213C79.3314 66.8399 79.6638 65.5879 79.6638 64.3017V63.6287Z" fill="black"/>
<path d="M85.4434 57.451H88.5476V59.2153H88.5871C88.8417 58.6488 89.2537 58.1647 89.7756 57.8189C90.2975 57.473 90.908 57.2795 91.5366 57.2606C94.2838 57.2606 96.1418 58.3783 96.1418 61.3044V69.1201H93.043V62.1874C93.043 61.1519 92.9047 59.926 90.8031 59.926C88.9195 59.926 88.5476 60.939 88.5476 61.8852V69.1193H85.4434V57.451Z" fill="black"/>
<path d="M114.321 53.4298V61.9907H114.367L118.237 57.4528H121.786L117.733 61.9077L122.047 69.1192H118.42L115.607 64.1248L114.321 65.4778V69.1192H111.223V53.4298H114.321Z" fill="black"/>
<path d="M98.6094 69.1391L108.119 53.3821H108.712L99.1735 69.1391H98.6094Z" fill="black"/>
<path d="M114.321 53.4298V61.9907H114.367L118.237 57.4528H121.786L117.733 61.9077L122.047 69.1192H118.42L115.607 64.1248L114.321 65.4778V69.1192H111.223V53.4298H114.321Z" fill="black"/>
<path d="M130.669 69.1183C130.432 68.7772 130.316 68.3684 130.34 67.9556C129.854 68.487 129.259 68.9101 128.595 69.1969C127.929 69.4835 127.21 69.6272 126.485 69.618C124.044 69.618 122.85 68.283 122.943 66.0199C123.008 64.3846 123.675 62.7935 126.422 62.3416C127.483 62.2906 128.532 62.1088 129.547 61.8004C129.805 61.6948 130.02 61.509 130.16 61.2714C130.3 61.0338 130.356 60.7577 130.321 60.4853C130.321 59.7537 129.7 59.429 128.283 59.429C126.507 59.429 126.29 60.4853 126.243 61.3232H123.319C123.363 57.598 126.643 57.258 128.283 57.258C129.246 57.2371 130.204 57.3818 131.115 57.6855C131.788 57.9242 132.361 58.3738 132.748 58.9653C133.136 59.5567 133.315 60.2572 133.259 60.9589V67.3323C133.265 67.5973 133.33 67.8575 133.449 68.0954C133.568 68.3332 133.738 68.5427 133.946 68.7097V69.1201L130.669 69.1183ZM130.318 63.6287C129.4 64.0023 128.425 64.216 127.434 64.2602C127.211 64.28 126.996 64.3472 126.804 64.4573C126.611 64.5673 126.444 64.7174 126.316 64.8971C126.188 65.0768 126.101 65.282 126.062 65.4981C126.021 65.7143 126.03 65.9364 126.087 66.149C126.261 66.8398 126.819 67.3351 128.144 67.1213C129.985 66.8398 130.318 65.5879 130.318 64.3016V63.6287Z" fill="black"/>
<path d="M136.074 57.451H139.172V59.7104H139.223C139.312 59.3206 139.487 58.9548 139.735 58.6389C139.983 58.323 140.3 58.0647 140.66 57.8821C140.964 57.6321 141.318 57.4476 141.699 57.3404C142.08 57.2332 142.479 57.2057 142.871 57.2597V60.3337C141.543 60.183 139.549 60.0117 139.172 62.5509V69.1192H136.074V57.451Z" fill="black"/>
<path d="M155.383 69.1823H152.287V67.9538H152.24C151.902 68.4467 151.451 68.8539 150.923 69.1423C150.396 69.4305 149.806 69.5917 149.203 69.6126C147.038 69.6947 145.797 68.8558 144.864 66.9174C144.357 65.9007 144.05 64.7991 143.957 63.6703C143.906 62.3715 144.172 61.0795 144.732 59.9026C145.078 59.1114 145.653 58.4386 146.386 57.9686C147.12 57.4985 147.977 57.2523 148.851 57.2606C150.866 57.1704 151.8 58.0544 152.24 59.043H152.284V53.4308H155.381L155.383 69.1823ZM147.613 61.1762C147.273 61.891 147.092 62.669 147.081 63.4582C147.092 64.2469 147.273 65.0242 147.613 65.7385C147.795 66.1296 148.086 66.461 148.453 66.6934C148.82 66.9259 149.248 67.0494 149.684 67.0494C150.121 67.0494 150.548 66.9259 150.915 66.6934C151.283 66.461 151.574 66.1296 151.755 65.7385C152.095 65.024 152.276 64.2468 152.287 63.4582C152.276 62.6691 152.095 61.8912 151.755 61.1762C151.575 60.7842 151.284 60.4518 150.916 60.2187C150.549 59.9855 150.122 59.8615 149.684 59.8615C149.247 59.8615 148.82 59.9855 148.452 60.2187C148.085 60.4518 147.794 60.7842 147.613 61.1762Z" fill="black"/>
<path d="M159.192 68.1911C158.584 67.5581 158.114 66.8093 157.81 65.9908C157.506 65.1722 157.376 64.3013 157.427 63.4312C157.377 62.5623 157.508 61.6924 157.812 60.8751C158.115 60.0577 158.585 59.31 159.192 58.6777C160.372 57.7593 161.833 57.2598 163.336 57.2598C164.84 57.2598 166.301 57.7593 167.481 58.6777C168.088 59.3098 168.559 60.0574 168.863 60.8747C169.168 61.6921 169.299 62.562 169.25 63.4312C169.3 64.3014 169.168 65.1726 168.865 65.9912C168.56 66.8097 168.089 67.5583 167.481 68.1911C166.302 69.1116 164.841 69.6125 163.336 69.6125C161.832 69.6125 160.371 69.1116 159.192 68.1911ZM161.123 61.1555C160.751 61.8601 160.552 62.6408 160.543 63.4348C160.551 64.2301 160.75 65.0123 161.123 65.7178C161.335 66.1143 161.653 66.4462 162.043 66.6778C162.434 66.9092 162.88 67.0316 163.335 67.0316C163.79 67.0316 164.237 66.9092 164.627 66.6778C165.017 66.4462 165.335 66.1143 165.547 65.7178C165.921 65.0123 166.119 64.2301 166.127 63.4348C166.118 62.6408 165.919 61.8601 165.547 61.1555C165.334 60.7597 165.016 60.4286 164.626 60.1976C164.236 59.9667 163.789 59.8448 163.335 59.8448C162.881 59.8448 162.434 59.9667 162.044 60.1976C161.654 60.4286 161.336 60.7597 161.123 61.1555Z" fill="black"/>
<path d="M171.303 57.451H174.405V59.2153H174.45C174.702 58.648 175.113 58.1631 175.635 57.8171C176.156 57.4711 176.767 57.2781 177.396 57.2606C180.143 57.2606 182 58.3783 182 61.3044V69.1201H178.903V62.1874C178.903 61.1519 178.765 59.926 176.663 59.926C174.778 59.926 174.405 60.939 174.405 61.8852V69.1193H171.303V57.451Z" fill="black"/>
<path d="M98.6094 69.1391L108.119 53.3821H108.712L99.1735 69.1391H98.6094Z" fill="black"/>
</g>
<defs>
<clipPath id="clip0_627_2497">
<rect width="163" height="17" fill="white" transform="translate(19 53)"/>
</clipPath>
</defs>
</svg>
