<svg width="200" height="120" viewBox="0 0 200 120" fill="none" xmlns="http://www.w3.org/2000/svg">
<path d="M99.7131 21.7129C92.1406 21.7129 84.7381 23.935 78.4419 28.0983C72.1455 32.2615 67.2381 38.1789 64.3402 45.1021C61.4424 52.0253 60.6841 59.6433 62.1615 66.993C63.6388 74.3426 67.2853 81.0937 72.6399 86.3924C77.9944 91.6913 84.8166 95.2998 92.2437 96.7617C99.6706 98.2237 107.369 97.4733 114.365 94.6057C121.361 91.738 127.341 86.8817 131.547 80.6509C135.754 74.4202 138 67.0949 138 59.6013C138 49.5527 133.967 39.9156 126.787 32.8102C119.606 25.7047 109.868 21.7129 99.7131 21.7129ZM99.7131 93.2704C90.7068 93.2571 82.0743 89.7056 75.7131 83.3965C69.3517 77.0875 65.7821 68.537 65.7888 59.6246C65.7955 50.7122 69.378 42.167 75.7487 35.8672C82.1195 29.5675 90.7572 26.0288 99.7634 26.0288C108.77 26.0288 117.407 29.5675 123.778 35.8672C130.149 42.167 133.732 50.7122 133.738 59.6246C133.745 68.537 130.175 77.0875 123.814 83.3965C117.453 89.7056 108.82 93.2571 99.8137 93.2704H99.7131Z" fill="black"/>
<path d="M127.5 74.8643L121.931 68.437C121.857 68.3621 121.777 68.2952 121.69 68.2372C121.552 68.166 121.399 68.1288 121.242 68.1288C121.087 68.1288 120.934 68.166 120.796 68.2372C120.389 68.4337 119.942 68.5336 119.49 68.5289C119.038 68.5244 118.593 68.4154 118.19 68.2107C117.789 68.0061 117.44 67.7113 117.173 67.3499C116.906 66.9886 116.729 66.5706 116.653 66.1293C116.452 65.0724 116.023 64.071 115.394 63.1936C114.766 62.3161 113.954 61.5833 113.013 61.0453L110.521 59.6262L124.673 51.5457L122.933 48.5352L107.04 57.6044L105.122 56.5056V54.3218L121.029 45.2424L119.289 42.232L105.122 50.3229V47.4743C105.132 46.4054 104.909 45.3469 104.468 44.3713C104.026 43.3957 103.377 42.5261 102.564 41.8221C102.222 41.5314 101.953 41.1669 101.776 40.7568C101.6 40.3468 101.52 39.902 101.544 39.4568C101.568 39.0117 101.695 38.5779 101.916 38.1891C102.136 37.8001 102.443 37.4664 102.814 37.2135C102.941 37.1237 103.045 37.0054 103.116 36.8683C103.187 36.7311 103.226 36.579 103.226 36.4248C103.246 36.3225 103.246 36.217 103.226 36.1147L100.27 28.1479C100.225 28.0005 100.123 27.8768 99.9865 27.8038C99.8487 27.731 99.6884 27.7146 99.5394 27.7586C99.4467 27.7863 99.3626 27.8364 99.2946 27.9043C99.2265 27.9723 99.1767 28.056 99.1495 28.1479L96.3302 36.1147C96.3198 36.2178 96.3198 36.3217 96.3302 36.4248C96.3302 36.5805 96.369 36.734 96.443 36.8716C96.517 37.0091 96.6241 37.1266 96.7548 37.2135C97.3987 37.656 97.8388 38.3333 97.9785 39.0966C98.1181 39.8599 97.9459 40.6469 97.4997 41.2848C97.3566 41.4916 97.1856 41.6783 96.9915 41.8393C96.1675 42.5376 95.5066 43.4047 95.0547 44.3806C94.6026 45.3566 94.3705 46.4181 94.374 47.4916V50.3401L80.1243 42.232L78.384 45.2424L94.287 54.3218V56.5022L92.3657 57.6009L76.4835 48.5112L74.7432 51.5216L88.8503 59.6021L86.3581 61.0212C85.419 61.5659 84.6111 62.3067 83.9908 63.1917C83.3705 64.0769 82.9525 65.0852 82.7661 66.1465C82.6942 66.5271 82.5471 66.8899 82.3329 67.2139C82.1188 67.538 81.8419 67.8169 81.5185 68.0346C81.1949 68.2523 80.831 68.4045 80.4477 68.4825C80.0645 68.5604 79.6695 68.5625 79.2854 68.4887C79.0344 68.4438 78.7908 68.3649 78.5614 68.2545C78.4245 68.1833 78.2723 68.146 78.1177 68.146C77.963 68.146 77.8107 68.1833 77.6739 68.2545C77.5824 68.3093 77.4993 68.3765 77.4268 68.4542L71.8577 74.8815C71.7566 75.0025 71.7084 75.1583 71.7234 75.3146C71.7384 75.471 71.8155 75.6149 71.9377 75.7151C72.0034 75.7699 72.0806 75.8098 72.1635 75.8318C72.2465 75.8538 72.3335 75.8575 72.418 75.8425L80.8238 74.289C80.9232 74.264 81.0191 74.227 81.1092 74.1788C81.2464 74.1019 81.3626 73.993 81.4475 73.8615C81.5324 73.73 81.5836 73.58 81.5966 73.4245C81.674 72.6531 82.0577 71.9439 82.6634 71.4523C83.2691 70.9608 84.0471 70.7274 84.8266 70.8033C85.0641 70.8274 85.2977 70.8795 85.5228 70.9583C86.5425 71.313 87.628 71.4447 88.7042 71.3441C89.7804 71.2437 90.8218 70.9134 91.7566 70.3763L94.2488 68.9571V85.07H97.7538V66.8801L99.6612 65.7951L101.568 66.8801V85.0528H105.07V68.8813L107.566 70.3005C108.502 70.8362 109.543 71.1654 110.618 71.2652C111.695 71.3651 112.78 71.2334 113.799 70.8791C114.537 70.6169 115.35 70.6554 116.058 70.9861C116.767 71.3169 117.314 71.9127 117.58 72.6426C117.66 72.8653 117.713 73.0965 117.74 73.3316C117.745 73.4872 117.792 73.6388 117.874 73.7711C117.957 73.9035 118.074 74.0119 118.213 74.0859C118.303 74.1346 118.399 74.1717 118.499 74.1961L126.901 75.7495C127.024 75.7785 127.152 75.7676 127.268 75.7183C127.384 75.6689 127.48 75.584 127.543 75.4759C127.607 75.3679 127.632 75.2425 127.618 75.1187C127.603 74.9949 127.548 74.879 127.461 74.7885L127.5 74.8643ZM94.2974 64.8962L89.616 67.5587C89.1806 67.7894 88.6718 67.8441 88.1966 67.7112C87.7214 67.5782 87.3168 67.2682 87.0679 66.8461C86.8191 66.424 86.7453 65.9228 86.8622 65.4481C86.9791 64.9733 87.2775 64.5618 87.6946 64.3002L92.3588 61.624L94.2766 62.7228L94.2974 64.8962ZM97.8025 47.0059C97.8025 46.5035 98.0042 46.0217 98.3632 45.6664C98.7222 45.3111 99.2092 45.1115 99.7174 45.1115C100.225 45.1115 100.712 45.3111 101.071 45.6664C101.429 46.0217 101.632 46.5035 101.632 47.0059V52.3344L99.7097 53.4332L97.8025 52.3344V47.0059ZM101.903 60.8731L99.7097 62.1062L97.5171 60.8731V58.4069L99.7097 57.1704L101.903 58.4069V60.8731ZM112.415 66.8698C112.159 67.304 111.74 67.6205 111.25 67.7496C110.758 67.8788 110.237 67.8101 109.797 67.5587L105.122 64.8962V62.7021L107.04 61.6033L111.705 64.283C112.143 64.5308 112.465 64.941 112.599 65.4234C112.733 65.9059 112.667 66.4211 112.418 66.856L112.415 66.8698Z" fill="black"/>
</svg>
