<svg width="200" height="120" viewBox="0 0 200 120" fill="none" xmlns="http://www.w3.org/2000/svg">
<path d="M104.999 39.3623V32.6544C104.999 31.4199 104.509 30.2361 103.636 29.3633C102.762 28.4904 101.578 28 100.345 28C99.1101 28 97.9259 28.4904 97.0528 29.3633C96.1807 30.2361 95.6899 31.4199 95.6899 32.6544V39.3623C90.6145 40.302 85.9422 42.7554 82.2871 46.4C78.6319 50.0445 76.165 54.7098 75.2106 59.7825H68.5788C67.3489 59.7825 66.1694 60.271 65.2996 61.1407C64.43 62.0104 63.9414 63.19 63.9414 64.4199C63.9414 65.6498 64.43 66.8294 65.2996 67.6991C66.1694 68.5688 67.3489 69.0574 68.5788 69.0574H75.1119C75.9293 73.6672 77.9932 77.9653 81.0797 81.4855C84.1664 85.0057 88.1579 87.6137 92.6214 89.0265C97.0845 90.4395 101.85 90.6033 106.4 89.5004C110.95 88.3976 115.111 86.07 118.433 82.7702C121.753 79.4703 124.108 75.3242 125.24 70.7813C126.372 66.2385 126.239 61.4725 124.855 56.9999C123.471 52.5275 120.889 48.5194 117.389 45.4101C113.888 42.3009 109.603 40.2094 104.999 39.3623ZM100.445 80.6962C97.2583 80.676 94.1476 79.7118 91.5074 77.925C88.8672 76.1383 86.8157 73.6092 85.612 70.6572C84.4082 67.7053 84.1062 64.4628 84.7441 61.3394C85.3821 58.2158 86.9313 55.3515 89.1961 53.1079C91.4609 50.8643 94.3398 49.3423 97.4687 48.7338C100.599 48.1254 103.838 48.4579 106.778 49.6894C109.718 50.9209 112.228 52.9962 113.99 55.6531C115.752 58.3101 116.687 61.4295 116.678 64.6173C116.668 66.739 116.24 68.8379 115.419 70.7943C114.598 72.7506 113.399 74.526 111.892 76.0192C110.385 77.5123 108.599 78.6939 106.634 79.4964C104.671 80.2989 102.568 80.7066 100.445 80.6962Z" fill="black"/>
<path d="M90.2481 64.5186C90.2415 66.5167 90.8279 68.472 91.9331 70.1367C93.0384 71.8014 94.6131 73.1006 96.4571 73.87C98.301 74.6393 100.332 74.844 102.293 74.4583C104.254 74.0726 106.055 73.1138 107.47 71.7032C108.886 70.2926 109.851 68.4938 110.243 66.5345C110.636 64.5752 110.437 62.5435 109.675 60.6968C108.911 58.8501 107.618 57.2713 105.956 56.1604C104.295 55.0496 102.343 54.4566 100.343 54.4566C97.6739 54.4632 95.1149 55.5245 93.2244 57.409C91.3335 59.2935 90.2638 61.8489 90.2481 64.5186ZM97.1761 64.5186C97.18 63.7329 97.4941 62.9807 98.0511 62.4264C98.6072 61.8719 99.3608 61.5602 100.147 61.5595C100.926 61.5774 101.67 61.8946 102.222 62.4454C102.774 62.9963 103.094 63.7387 103.114 64.5186C103.11 65.3037 102.796 66.0554 102.24 66.6098C101.685 67.1641 100.931 67.4761 100.147 67.4776C99.7548 67.4852 99.3667 67.414 99.0032 67.2681C98.6408 67.1223 98.3099 66.9048 98.0334 66.6286C97.7558 66.3525 97.5376 66.0233 97.3904 65.6608C97.2423 65.2983 97.1702 64.9098 97.1761 64.5186Z" fill="black"/>
<path d="M80.7465 40.9393C80.7498 41.86 80.4799 42.761 79.9708 43.5281C79.4618 44.2953 78.7364 44.8942 77.8867 45.2488C77.0371 45.6035 76.1013 45.698 75.1979 45.5204C74.2945 45.3429 73.464 44.9013 72.8118 44.2514C72.1595 43.6015 71.7149 42.7727 71.534 41.87C71.3531 40.9672 71.4443 40.0311 71.7958 39.1801C72.1474 38.3291 72.7436 37.6016 73.5089 37.0897C74.2742 36.5779 75.1743 36.3046 76.0949 36.3046C76.7049 36.3028 77.3092 36.4213 77.8733 36.6533C78.4374 36.8854 78.9501 37.2264 79.3822 37.6569C79.8143 38.0875 80.1573 38.599 80.3913 39.1622C80.6254 39.7255 80.7461 40.3293 80.7465 40.9393Z" fill="black"/>
</svg>
