<svg width="200" height="120" viewBox="0 0 200 120" fill="none" xmlns="http://www.w3.org/2000/svg">
<path d="M110.499 61.0004C110.499 55.1998 105.797 50.5042 99.9964 50.5042C94.1957 50.5042 89.5 55.2059 89.5 61.0004C89.5 66.801 94.2018 71.5028 99.9964 71.5028C105.797 71.4967 110.499 66.7949 110.499 61.0004Z" fill="black"/>
<path d="M100 26C96.3417 26 92.8123 26.5647 89.4977 27.602V47.5143V47.5327C92.5975 44.8012 96.5689 43.4078 100.682 43.5367C104.769 43.6657 108.698 45.2862 111.73 48.0176C117.102 52.8729 118.931 60.5334 116.328 67.2854C113.726 74.0434 107.237 78.4998 99.994 78.4998C94.531 78.4998 89.3687 75.9525 86.0602 71.6005C84.409 69.4276 83.341 66.9784 82.7885 64.3145C82.23 61.6444 82.23 58.9865 82.23 56.2919V30.8369C71.9178 36.9259 65 48.1527 65 60.9998C65 80.329 80.6709 95.9997 100 95.9997C119.33 95.9997 135 80.329 135 60.9998C135 41.6707 119.33 26 100 26Z" fill="black"/>
</svg>
