<svg width="200" height="120" viewBox="0 0 200 120" fill="none" xmlns="http://www.w3.org/2000/svg">
<path d="M49.8171 69.8702V60.1698C49.8199 58.4886 49.4865 56.8238 48.8367 55.2732C48.1871 53.7227 47.2339 52.3176 46.0336 51.1405C43.7864 48.9373 40.7651 47.7029 37.618 47.7023C37.608 47.7023 37.6031 47.6975 37.5907 47.6975L25.4188 47.7023V60.1698C25.4 61.79 25.7007 63.3982 26.3038 64.9022C26.9069 66.4062 27.8003 67.7766 28.9333 68.9352C30.0662 70.0937 31.4163 71.0177 32.9064 71.6541C34.3967 72.2906 35.9976 72.6272 37.618 72.6447H44.731C39.6847 69.8951 28.9964 51.3643 28.9964 51.3643C29.0783 51.4836 44.607 72.6298 49.8097 72.6471V72.6447H51.1693C50.7622 72.3028 50.4314 71.879 50.1984 71.4011C49.9655 70.9232 49.8356 70.4015 49.8171 69.8702Z" fill="black"/>
<path d="M54.3042 47.7012H51.1682V69.4414C51.1629 69.8573 51.2397 70.2702 51.3941 70.6564C51.5485 71.0427 51.7776 71.3946 52.0681 71.6922C52.3587 71.9899 52.7051 72.2273 53.0875 72.3909C53.4699 72.5545 53.8809 72.6412 54.2968 72.6459L57.4229 72.6484C57.4229 72.6484 57.4278 71.373 57.4278 69.4564C57.4278 69.4564 57.4229 69.4539 57.4278 69.4414C57.4278 69.4414 57.4229 69.4414 57.4278 69.434C57.4229 63.398 57.4303 50.9454 57.4278 50.9007C57.4331 50.4854 57.3566 50.0731 57.2023 49.6875C57.0482 49.3019 56.8195 48.9505 56.5294 48.6532C56.2393 48.3561 55.8934 48.1191 55.5116 47.9557C55.1298 47.7923 54.7195 47.7058 54.3042 47.7012ZM153.34 57.4141C153.675 56.0636 154.45 54.863 155.542 54.0009C156.634 53.1386 157.981 52.6638 159.373 52.6508C160.784 52.6217 162.163 53.0792 163.277 53.9466C164.392 54.8139 165.174 56.0384 165.492 57.4141H153.34ZM146.899 60.0169C145.06 58.3339 142.045 57.5831 138.386 56.969C135.345 56.4892 133.538 56.0492 133.538 54.7391C133.545 53.8143 134.722 52.7553 137.619 52.7553C139.947 52.7553 141.323 53.6702 141.706 54.8361H147.992C147.291 56.4745 146.92 58.2349 146.899 60.0169ZM138.099 67.4055C136.245 67.4079 133.732 66.6248 132.876 64.4843H127.653C127.653 62.1375 127.661 59.6192 127.661 57.3892C129.09 60.9517 133.719 61.9287 137.389 62.498C141.661 63.1816 142.514 63.7657 142.514 65.1703C142.504 66.6248 140.614 67.408 138.099 67.4055ZM121.314 60.2258C121.314 64.104 118.515 67.2538 115.05 67.2538C111.586 67.2538 108.787 64.2009 108.785 60.2258C108.787 60.2034 108.785 60.1859 108.787 60.166V60.1289C108.787 56.1487 111.582 53.081 115.05 53.0786C118.515 53.086 121.314 56.2407 121.314 60.1289C121.313 60.1429 121.313 60.1571 121.314 60.1711V60.2258ZM103.101 64.1984L97.613 64.1934C97.1436 65.1533 96.4145 65.9623 95.5085 66.5287C94.6024 67.0951 93.5557 67.3963 92.4872 67.3979C89.0212 67.3979 86.2177 64.1462 86.2177 60.2134C86.2177 56.1811 89.0212 52.8796 92.4872 52.8796C93.54 52.8981 94.5682 53.2008 95.4631 53.7556C96.358 54.3106 97.0862 55.097 97.5708 56.0319H103.141C102.71 57.3684 102.485 58.7621 102.471 60.166C102.486 61.5334 102.698 62.8915 103.101 64.1984ZM159.41 47.0249C157.006 47.0678 154.665 47.8013 152.666 49.1377C150.666 50.4742 149.094 52.3572 148.134 54.5626C147.211 50.0182 143.115 47.0299 137.619 47.0249C132.025 47.0249 128.785 49.5832 127.653 52.5986C127.661 51.5595 127.663 50.9107 127.653 50.9006C127.66 50.4862 127.584 50.0743 127.431 49.6891C127.278 49.3037 127.051 48.9523 126.762 48.6551C126.473 48.3578 126.128 48.1206 125.747 47.9569C125.367 47.7932 124.957 47.7063 124.542 47.7012L124.524 47.6988L121.406 47.7012L121.401 50.0679C120.462 49.1175 119.338 48.3703 118.098 47.8725C116.858 47.3747 115.53 47.137 114.194 47.1741C111.933 47.2399 109.741 47.9612 107.883 49.2505C106.025 50.5397 104.582 52.3412 103.728 54.4358C102.873 52.1735 101.326 50.2383 99.3085 48.9053C97.2905 47.5722 94.9037 46.909 92.4872 47.01C89.7645 46.993 87.1124 47.8761 84.9435 49.522C82.7746 51.1681 81.2102 53.4845 80.4938 56.1114C79.7248 50.6943 75.8693 47.0249 69.7833 47.0249C63.1367 47.0249 58.7751 51.828 58.7751 58.1873V72.646L61.9085 72.6484L65.0396 72.646V58.043C65.0111 57.4118 65.1144 56.7816 65.3428 56.1926C65.5711 55.6034 65.9196 55.0684 66.366 54.6212C66.8125 54.1741 67.347 53.8249 67.9358 53.5956C68.5245 53.3664 69.1546 53.2622 69.7858 53.2897C73.9167 53.2897 74.3881 56.636 74.3881 58.043V69.439C74.3789 70.2796 74.7038 71.0895 75.2913 71.6909C75.8788 72.2921 76.681 72.6356 77.5216 72.646L80.6576 72.6484V64.7777C81.4765 67.2593 83.0646 69.4156 85.1916 70.9337C87.3187 72.4517 89.8742 73.2527 92.4872 73.2202C97.7892 73.2277 101.897 70.5353 103.736 65.9286C104.59 68.0192 106.033 69.8168 107.89 71.1032C109.746 72.3896 111.937 73.1095 114.194 73.1755C115.53 73.213 116.858 72.9754 118.098 72.4776C119.338 71.9798 120.463 71.2324 121.401 70.2817L121.497 70.1897C121.651 70.881 122.035 71.4999 122.584 71.9462C123.135 72.3924 123.819 72.6398 124.528 72.6483H127.649C127.649 72.6483 127.649 71.3805 127.653 69.4563V67.8752C129.511 71.2414 133.313 73.2202 138.099 73.2277C143.542 73.2202 147.623 70.58 148.595 66.6396C149.643 68.6052 151.2 70.253 153.102 71.4107C155.005 72.5684 157.184 73.1934 159.41 73.2202C165.492 73.2202 169.813 69.7795 171.238 64.6883H164.541C164.034 65.6053 163.283 66.3635 162.371 66.878C161.457 67.3925 160.42 67.6431 159.373 67.6018C157.939 67.6042 156.548 67.1134 155.433 66.2116C154.319 65.3099 153.547 64.0523 153.25 62.6496H171.708C172.61 52.7553 166.628 47.0249 159.41 47.0249Z" fill="black"/>
</svg>
