<svg width="200" height="120" viewBox="0 0 200 120" fill="none" xmlns="http://www.w3.org/2000/svg">
<path d="M110.997 52.5732C111.082 52.5751 111.166 52.5598 111.245 52.5281C111.323 52.4966 111.395 52.4493 111.454 52.3894C111.514 52.3294 111.56 52.258 111.592 52.1793C111.624 52.1007 111.639 52.0165 111.636 51.9319V50.5119C111.639 50.4273 111.624 50.3432 111.592 50.2646C111.56 50.1859 111.514 50.1145 111.454 50.0545C111.395 49.9946 111.323 49.9473 111.245 49.9158C111.166 49.8841 111.082 49.8688 110.997 49.8707C100.596 49.8707 100.596 52.2067 100.596 53.3976V65.3985C100.594 65.4831 100.609 65.5673 100.64 65.6458C100.672 65.7245 100.718 65.7959 100.778 65.856C100.838 65.9159 100.909 65.9631 100.988 65.9947C101.066 66.0263 101.15 66.0416 101.235 66.0397H105.387C105.471 66.0416 105.555 66.0263 105.633 65.9947C105.711 65.9631 105.783 65.9159 105.843 65.856C105.902 65.7959 105.95 65.7245 105.98 65.6458C106.012 65.5673 106.027 65.4831 106.025 65.3985V54.268C105.979 53.7641 105.979 52.5732 110.997 52.5732ZM70.2592 62.8792V53.3976C70.2592 52.2066 70.2592 49.8706 59.858 49.8706C49.8216 49.8706 49.8216 52.2066 49.8216 53.3976V54.2679C49.8194 54.3525 49.8344 54.4366 49.8656 54.5153C49.8969 54.5939 49.9439 54.6654 50.0036 54.7253C50.0633 54.7854 50.1346 54.8325 50.2131 54.8642C50.2915 54.8957 50.3757 54.9111 50.4603 54.9092H54.6117C54.6963 54.9111 54.7804 54.8957 54.8589 54.8642C54.9374 54.8325 55.0087 54.7854 55.0684 54.7253C55.1281 54.6654 55.1751 54.5939 55.2063 54.5153C55.2376 54.4366 55.2526 54.3525 55.2504 54.2679C55.2504 53.7641 55.2504 52.5731 59.9035 52.5731C64.9217 52.5731 64.9217 53.7641 64.9217 54.2679V56.833C63.254 56.6705 61.5791 56.5941 59.9035 56.604C49.5023 56.604 49.5023 58.94 49.5023 60.1309V62.8792C49.5023 64.0701 49.5023 66.4062 59.9035 66.4062C70.2592 66.4062 70.2592 64.0701 70.2592 62.8792ZM64.8305 61.9631C64.8305 62.467 64.8305 63.6579 59.8124 63.6579C54.7942 63.6579 54.7942 62.467 54.7942 61.9631V61.0012C54.7942 60.4973 54.7942 59.2607 59.8124 59.2607C64.8305 59.2607 64.8305 60.4516 64.8305 61.0012V61.9631ZM95.8062 62.8334V53.3976C95.8062 52.2066 95.8062 49.8706 85.4049 49.8706C83.7294 49.8607 82.0545 49.9372 80.3868 50.0997V43.7329C80.389 43.6483 80.374 43.5641 80.3428 43.4854C80.3115 43.4068 80.2646 43.3353 80.2048 43.2754C80.1451 43.2154 80.0738 43.1682 79.9953 43.1366C79.9169 43.1051 79.8327 43.0898 79.7481 43.0916H75.5967C75.5121 43.0898 75.4279 43.1051 75.3495 43.1366C75.271 43.1682 75.1997 43.2154 75.14 43.2754C75.0803 43.3353 75.0333 43.4068 75.002 43.4854C74.9708 43.5641 74.9558 43.6483 74.958 43.7329V62.8334C74.958 64.0244 74.958 66.3604 85.3593 66.3604C95.8062 66.4062 95.8062 64.0244 95.8062 62.8334ZM80.4325 61.9631V54.268C80.4325 53.7641 80.4325 52.5732 85.4506 52.5732C90.4687 52.5732 90.4687 53.7641 90.4687 54.268V61.9631C90.4687 62.467 90.4687 63.6579 85.4506 63.6579C80.4324 63.6579 80.4325 62.467 80.4325 61.9631ZM123.771 66.4062C134.173 66.4062 134.173 64.0701 134.173 62.8792V53.3976C134.173 52.2066 134.173 49.8706 123.771 49.8706C113.734 49.8706 113.734 52.2066 113.734 53.3976V54.2679C113.732 54.3525 113.747 54.4366 113.779 54.5153C113.81 54.5939 113.857 54.6654 113.917 54.7253C113.976 54.7854 114.048 54.8325 114.126 54.8642C114.205 54.8957 114.289 54.9111 114.374 54.9092H118.524C118.61 54.9111 118.693 54.8957 118.772 54.8642C118.85 54.8325 118.922 54.7854 118.981 54.7253C119.041 54.6654 119.088 54.5939 119.119 54.5153C119.151 54.4366 119.166 54.3525 119.164 54.2679C119.164 53.7641 119.164 52.5731 123.771 52.5731C128.789 52.5731 128.789 53.7641 128.789 54.2679V56.833C127.121 56.6705 125.446 56.5941 123.771 56.604C113.369 56.604 113.369 58.94 113.369 60.1309V62.8792C113.324 64.0701 113.324 66.4062 123.771 66.4062ZM118.753 61.0012C118.753 60.4973 118.753 59.2607 123.771 59.2607C128.789 59.2607 128.789 60.4516 128.789 61.0012V61.9631C128.789 62.467 128.789 63.6579 123.771 63.6579C118.753 63.6579 118.753 62.467 118.753 61.9631V61.0012ZM44.2104 43.1374H40.059C39.9744 43.1355 39.8903 43.1508 39.8118 43.1824C39.7333 43.214 39.662 43.2612 39.6023 43.3212C39.5426 43.3811 39.4956 43.4526 39.4644 43.5312C39.4331 43.6099 39.4181 43.6941 39.4203 43.7787V62.0089C39.4203 62.5128 39.4203 63.7037 34.4022 63.7037C29.6121 63.7037 29.4296 62.6044 29.3841 62.0547V61.2302C29.3863 61.1456 29.3713 61.0615 29.3401 60.9828C29.3087 60.9042 29.2618 60.8327 29.2021 60.7728C29.1424 60.7127 29.0711 60.6656 28.9926 60.6339C28.9141 60.6024 28.83 60.5871 28.7454 60.589H24.594C24.5094 60.5871 24.4252 60.6024 24.3467 60.6339C24.2683 60.6656 24.197 60.7127 24.1373 60.7728C24.0775 60.8327 24.0306 60.9042 23.9993 60.9828C23.9681 61.0615 23.9531 61.1456 23.9553 61.2302V62.8334C23.9553 64.0244 23.9553 66.3604 34.3566 66.3604C44.7578 66.3604 44.7578 64.0244 44.7578 62.8334V43.7329C44.8947 43.4122 44.5753 43.1374 44.2104 43.1374ZM25.9625 75.2922H24.4115C24.3633 75.2917 24.3154 75.3008 24.2708 75.319C24.2262 75.3372 24.1857 75.3642 24.1516 75.3983C24.1175 75.4325 24.0907 75.4731 24.0727 75.5178C24.0547 75.5626 24.0458 75.6105 24.0465 75.6587V79.5063C24.0457 79.5545 24.0547 79.6024 24.0727 79.6471C24.0907 79.6918 24.1175 79.7325 24.1516 79.7667C24.1856 79.8009 24.2262 79.8278 24.2708 79.846C24.3154 79.8643 24.3633 79.8733 24.4115 79.8727H25.9625C26.0107 79.8733 26.0586 79.8643 26.1032 79.846C26.148 79.8278 26.1885 79.8008 26.2224 79.7666C26.2565 79.7325 26.2833 79.6918 26.3013 79.6471C26.3194 79.6024 26.3283 79.5545 26.3275 79.5063V75.6587C26.3732 75.4754 26.1907 75.2922 25.9625 75.2922ZM33.7179 75.2922H31.9387C31.8846 75.2921 31.831 75.3028 31.781 75.3235C31.7312 75.3441 31.6857 75.3745 31.6476 75.4129C31.6094 75.4512 31.5792 75.4967 31.5587 75.5468C31.5382 75.5968 31.5278 75.6504 31.5281 75.7045V79.5063C31.5278 79.5604 31.5382 79.614 31.5587 79.6641C31.5792 79.7142 31.6094 79.7596 31.6475 79.7979C31.6857 79.8363 31.7312 79.8667 31.781 79.8874C31.831 79.908 31.8846 79.9187 31.9387 79.9186H33.7179C33.772 79.9187 33.8256 79.908 33.8755 79.8874C33.9255 79.8667 33.9709 79.8363 34.009 79.7979C34.0472 79.7596 34.0774 79.7142 34.098 79.6641C34.1184 79.614 34.1288 79.5604 34.1285 79.5063V75.7045C34.1142 75.6004 34.0664 75.5039 33.9924 75.4295C33.9182 75.3551 33.8219 75.3069 33.7179 75.2922ZM41.4276 75.2922H39.3747C39.3206 75.2921 39.267 75.3028 39.217 75.3235C39.1671 75.3441 39.1217 75.3745 39.0836 75.4129C39.0454 75.4512 39.0151 75.4967 38.9947 75.5468C38.9742 75.5968 38.9638 75.6504 38.9642 75.7045V79.4604C38.9638 79.5145 38.9742 79.5681 38.9947 79.6182C39.0151 79.6683 39.0454 79.7137 39.0836 79.752C39.1217 79.7904 39.1671 79.8208 39.217 79.8415C39.267 79.8622 39.3206 79.8728 39.3747 79.8726H41.4276C41.4818 79.8728 41.5352 79.8622 41.5852 79.8415C41.6352 79.8208 41.6806 79.7904 41.7188 79.752C41.757 79.7137 41.7871 79.6683 41.8077 79.6182C41.8282 79.5681 41.8385 79.5145 41.8382 79.4604V75.7045C41.8385 75.6504 41.8282 75.5968 41.8077 75.5468C41.7871 75.4967 41.757 75.4512 41.7188 75.4129C41.6806 75.3745 41.6352 75.3441 41.5852 75.3235C41.5352 75.3028 41.4818 75.2921 41.4276 75.2922ZM49.1374 75.2922H46.8563C46.8023 75.2921 46.7487 75.3028 46.6987 75.3235C46.6487 75.3441 46.6033 75.3745 46.5652 75.4128C46.527 75.4512 46.4968 75.4967 46.4764 75.5468C46.4558 75.5968 46.4454 75.6504 46.4458 75.7045V79.4604C46.4454 79.5145 46.4558 79.5681 46.4764 79.6182C46.4968 79.6683 46.527 79.7137 46.5652 79.752C46.6033 79.7904 46.6487 79.8208 46.6987 79.8415C46.7487 79.8622 46.8023 79.8728 46.8563 79.8726H49.1374C49.1914 79.8728 49.245 79.8622 49.295 79.8415C49.3449 79.8208 49.3903 79.7904 49.4285 79.752C49.4667 79.7137 49.4968 79.6683 49.5173 79.6182C49.5379 79.5681 49.5482 79.5145 49.5479 79.4604V75.7045C49.5936 75.4754 49.3654 75.2922 49.1374 75.2922ZM56.8927 75.2922H54.338C54.2168 75.2928 54.1007 75.3413 54.0153 75.4271C53.9297 75.513 53.8818 75.6292 53.8818 75.7503V79.4604C53.8818 79.5816 53.9297 79.6978 54.0153 79.7837C54.1007 79.8695 54.2168 79.9181 54.338 79.9186H56.8927C57.0139 79.9181 57.1299 79.8695 57.2153 79.7837C57.3009 79.6978 57.3489 79.5816 57.3489 79.4604V75.7503C57.3336 75.6345 57.2806 75.5269 57.1981 75.4442C57.1157 75.3614 57.0084 75.308 56.8927 75.2922ZM64.6024 75.2922H61.8195C61.6984 75.2928 61.5824 75.3413 61.4969 75.4271C61.4114 75.513 61.3633 75.6292 61.3634 75.7503V79.4147C61.3634 79.5359 61.4114 79.6521 61.4969 79.738C61.5824 79.8238 61.6984 79.8723 61.8195 79.8728H64.6024C64.7236 79.8723 64.8395 79.8238 64.925 79.738C65.0105 79.6521 65.0586 79.5359 65.0586 79.4147V75.7503C65.0508 75.6317 65.0003 75.52 64.9164 75.4358C64.8324 75.3515 64.7209 75.3006 64.6024 75.2922ZM72.3121 75.2922H69.2556C69.1226 75.2937 68.9955 75.3473 68.9016 75.4416C68.8079 75.5358 68.7547 75.6631 68.7538 75.7961V79.4147C68.7547 79.5477 68.8079 79.675 68.9016 79.7692C68.9955 79.8634 69.1226 79.9171 69.2556 79.9186H72.3121C72.4451 79.9171 72.5722 79.8634 72.666 79.7692C72.7599 79.675 72.8129 79.5477 72.8139 79.4147V75.7961C72.8129 75.6631 72.7599 75.5358 72.666 75.4416C72.5722 75.3473 72.4451 75.2937 72.3121 75.2922ZM80.0218 75.2922H76.7372C76.6042 75.2937 76.4771 75.3473 76.3833 75.4416C76.2894 75.5358 76.2364 75.6631 76.2354 75.7961V79.4147C76.2364 79.5477 76.2894 79.675 76.3833 79.7692C76.4771 79.8634 76.6042 79.9171 76.7372 79.9186H80.0218C80.1548 79.9171 80.2819 79.8634 80.3757 79.7692C80.4696 79.675 80.5227 79.5477 80.5236 79.4147V75.7961C80.5271 75.7292 80.5164 75.6624 80.4925 75.5998C80.4685 75.5373 80.4317 75.4804 80.3845 75.4329C80.3372 75.3855 80.2805 75.3484 80.218 75.3242C80.1556 75.2999 80.0887 75.2891 80.0218 75.2922ZM87.7771 75.2922H84.2189C84.0858 75.2937 83.9587 75.3473 83.8649 75.4416C83.7711 75.5358 83.7179 75.6631 83.7171 75.7961V79.3688C83.7179 79.5018 83.7711 79.6291 83.8649 79.7233C83.9587 79.8176 84.0858 79.8712 84.2189 79.8727H87.7771C87.9101 79.8712 88.0372 79.8176 88.1311 79.7233C88.2249 79.6291 88.278 79.5018 88.2789 79.3688V75.7961C88.278 75.6631 88.2249 75.5358 88.1311 75.4416C88.0372 75.3473 87.9101 75.2937 87.7771 75.2922ZM95.4868 75.2922H91.7004C91.6276 75.2895 91.5551 75.3019 91.4872 75.3286C91.4194 75.3553 91.3579 75.3957 91.3064 75.4474C91.2551 75.499 91.2149 75.5607 91.1884 75.6286C91.162 75.6964 91.15 75.7691 91.153 75.8419V79.3689C91.15 79.4417 91.162 79.5143 91.1884 79.5822C91.2149 79.6501 91.2551 79.7118 91.3064 79.7634C91.3579 79.8151 91.4194 79.8555 91.4872 79.8822C91.5551 79.9089 91.6276 79.9212 91.7004 79.9186H95.4868C95.5597 79.9212 95.6323 79.9089 95.7 79.8822C95.7678 79.8555 95.8294 79.8151 95.8808 79.7634C95.9322 79.7118 95.9724 79.6501 95.9988 79.5822C96.0252 79.5143 96.0373 79.4417 96.0343 79.3689V75.8419C96.0327 75.6971 95.9746 75.5585 95.8723 75.4558C95.77 75.3531 95.6318 75.2944 95.4868 75.2922ZM103.197 75.2922H99.1821C99.1092 75.2895 99.0366 75.3019 98.9688 75.3286C98.9011 75.3553 98.8395 75.3957 98.7881 75.4473C98.7366 75.499 98.6964 75.5607 98.6701 75.6286C98.6437 75.6964 98.6316 75.7691 98.6346 75.8419V79.323C98.6316 79.3959 98.6437 79.4685 98.6701 79.5364C98.6964 79.6044 98.7366 79.6661 98.7881 79.7176C98.8395 79.7692 98.9011 79.8097 98.9688 79.8364C99.0366 79.8631 99.1092 79.8754 99.1821 79.8727H103.197C103.27 79.8754 103.342 79.8631 103.41 79.8364C103.477 79.8097 103.54 79.7692 103.59 79.7176C103.642 79.6661 103.682 79.6044 103.708 79.5364C103.735 79.4685 103.747 79.3959 103.744 79.323V75.8419C103.747 75.7691 103.735 75.6963 103.708 75.6284C103.683 75.5604 103.642 75.4987 103.591 75.447C103.54 75.3953 103.477 75.3549 103.41 75.3283C103.342 75.3016 103.27 75.2894 103.197 75.2922ZM160.403 75.2922H107.074C106.808 75.2952 106.554 75.4023 106.367 75.5908C106.179 75.7793 106.072 76.034 106.07 76.3V78.865C106.072 79.1311 106.179 79.3857 106.367 79.5742C106.554 79.7627 106.808 79.8699 107.074 79.8727H160.403C160.67 79.8699 160.924 79.7627 161.112 79.5742C161.3 79.3857 161.405 79.1311 161.407 78.865V76.3C161.405 76.034 161.3 75.7793 161.112 75.5908C160.924 75.4023 160.67 75.2952 160.403 75.2922ZM178.652 43C178.3 43.0134 177.968 43.1655 177.729 43.4231C177.489 43.6807 177.362 44.0227 177.374 44.3741V53.8099C177.374 53.8575 177.361 53.9043 177.335 53.9442C177.309 53.9843 177.272 54.016 177.229 54.0354C177.185 54.0548 177.137 54.0611 177.089 54.0536C177.043 54.0461 176.999 54.0251 176.964 53.9931L166.334 43.4122C166.118 43.2061 165.841 43.0765 165.544 43.0434C165.247 43.0102 164.948 43.0755 164.692 43.229C164.494 43.3467 164.33 43.5147 164.218 43.7157C164.107 43.9168 164.05 44.144 164.053 44.3741V57.6574C164.054 57.8351 164.091 58.0106 164.16 58.1739C164.23 58.3372 164.331 58.4849 164.459 58.6086C164.587 58.7322 164.737 58.8292 164.902 58.894C165.068 58.9588 165.244 58.99 165.422 58.9858C165.777 58.9744 166.115 58.8244 166.363 58.5677C166.61 58.311 166.747 57.968 166.745 57.6117V48.1759C166.745 48.1282 166.758 48.0816 166.784 48.0415C166.81 48.0016 166.847 47.9699 166.89 47.9505C166.934 47.931 166.982 47.9247 167.03 47.9322C167.076 47.9397 167.12 47.9607 167.155 47.9927L177.739 58.6193C177.862 58.75 178.01 58.854 178.175 58.9249C178.34 58.9958 178.518 59.0322 178.697 59.0317C178.937 59.036 179.175 58.9725 179.382 58.8484C179.584 58.7251 179.751 58.5496 179.864 58.3401C179.975 58.1307 180.029 57.895 180.02 57.6574V44.3283C180.003 43.9748 179.852 43.6409 179.598 43.3944C179.344 43.1478 179.005 43.0069 178.652 43ZM160.085 49.6875H156.161C155.803 49.6826 155.458 49.8198 155.202 50.0688C154.945 50.3179 154.798 50.6584 154.791 51.0159C154.785 51.3735 154.921 51.7189 155.169 51.9764C155.418 52.2339 155.758 52.3827 156.115 52.39H158.442C158.484 52.389 158.527 52.3967 158.566 52.4124C158.605 52.4282 158.641 52.4519 158.67 52.4818C158.7 52.5118 158.724 52.5475 158.74 52.5869C158.754 52.6262 158.762 52.6683 158.761 52.7106V56.0543C158.762 56.0966 158.754 56.1387 158.74 56.178C158.724 56.2174 158.7 56.253 158.67 56.2831C158.641 56.3131 158.605 56.3367 158.566 56.3524C158.527 56.3682 158.484 56.3759 158.442 56.375H153.56C152.145 56.387 150.783 55.8364 149.774 54.8442C148.764 53.852 148.19 52.4996 148.179 51.0843C148.166 49.669 148.717 48.3069 149.709 47.2977C150.702 46.2884 152.054 45.7146 153.47 45.7025H160.039C160.395 45.7032 160.737 45.5647 160.993 45.3166C161.249 45.0684 161.398 44.7302 161.407 44.3741C161.409 44.0178 161.272 43.6748 161.025 43.4181C160.778 43.1614 160.44 43.0114 160.085 43H153.56C151.5 43.0033 149.518 43.7912 148.018 45.2037C146.518 46.6163 145.613 48.5471 145.486 50.6035C145.431 51.6815 145.594 52.7596 145.968 53.7723C146.341 54.7849 146.917 55.7113 147.66 56.495C148.401 57.2788 149.295 57.9036 150.286 58.3318C151.277 58.7599 152.344 58.9824 153.423 58.9857H160.039C160.39 58.9847 160.727 58.8443 160.975 58.5953C161.223 58.3462 161.362 58.0089 161.362 57.6574V51.0158C161.379 50.8415 161.358 50.6654 161.301 50.4999C161.244 50.3343 161.151 50.1833 161.03 50.057C160.908 49.9306 160.761 49.8322 160.597 49.7685C160.434 49.7047 160.259 49.677 160.085 49.6875Z" fill="black"/>
</svg>
