<svg width="200" height="120" viewBox="0 0 200 120" fill="none" xmlns="http://www.w3.org/2000/svg">
<path d="M64.6004 80.1357V70.7514H55.7559V78.5215C55.7559 82.409 59.2379 88.7191 69.1521 88.7191C79.0662 88.7191 82.5509 83.8989 82.5509 78.5215V34H73.7087V80.0735C73.7128 81.2877 73.2379 82.4547 72.3873 83.3212C71.5366 84.1877 70.3787 84.6838 69.1645 84.7022C67.9547 84.7003 66.795 84.2183 65.9403 83.3621C65.0855 82.5059 64.6054 81.3456 64.6054 80.1357" fill="black"/>
<path d="M60.1768 64.8739C61.1906 64.8754 62.1821 64.5761 63.0257 64.0138C63.8694 63.4516 64.5272 62.6517 64.916 61.7155C65.3049 60.7792 65.4074 59.7487 65.2103 58.7542C65.0133 57.7597 64.5256 56.8462 63.809 56.1289C63.0925 55.4117 62.1794 54.9232 61.1851 54.7251C60.1909 54.5272 59.1601 54.6285 58.2236 55.0165C57.2869 55.4045 56.4864 56.0615 55.9233 56.9046C55.3604 57.7477 55.0601 58.7389 55.0605 59.7526C55.0605 61.11 55.5994 62.4118 56.5588 63.3721C57.5181 64.3324 58.8195 64.8725 60.1768 64.8739Z" fill="black"/>
<path d="M102.915 57.2158H102.512H98.0922V39.0964H102.915C106.131 39.0964 106.934 39.7704 106.934 48.2194C106.934 56.6686 106.131 57.2158 102.915 57.2158ZM103.449 83.4959H102.512H98.0922V61.7675H103.449C106.932 61.7675 106.932 64.2398 106.932 72.6939C106.932 81.148 106.932 83.5034 103.449 83.5034M115.774 51.9728V42.7849C115.724 40.4611 114.776 38.2469 113.127 36.6085C111.478 34.97 109.258 34.0349 106.934 34H89.25V87.9157H106.934C113.566 87.9157 115.774 83.6227 115.774 80.8744V64.7074C115.637 63.259 114.964 61.914 113.887 60.9352C112.811 59.9564 111.408 59.4143 109.954 59.4146C113.436 59.4146 115.779 54.654 115.779 51.9728" fill="black"/>
<path d="M68.3486 34H52L60.173 52.6418L68.3486 34Z" fill="black"/>
<path d="M149 70.7488H140.156V80.1357C140.156 81.3442 139.676 82.5032 138.821 83.3577C137.966 84.2122 136.807 84.6923 135.599 84.6923C134.39 84.6923 133.231 84.2122 132.376 83.3577C131.522 82.5032 131.042 81.3442 131.042 80.1357V34H122.205V87.9157H149V70.7488Z" fill="black"/>
</svg>
