<svg width="200" height="120" viewBox="0 0 200 120" fill="none" xmlns="http://www.w3.org/2000/svg">
<path d="M34 71.2882V43.5859H38.8625V71.2882H34Z" fill="black"/>
<path d="M51.3097 51.1911C49.9335 51.1609 48.5652 51.4064 47.2852 51.9129C46.0052 52.4195 44.8395 53.177 43.8567 54.1408C42.8739 55.1045 42.0937 56.2552 41.5622 57.525C41.0307 58.7948 40.7585 60.1581 40.7617 61.5346C40.7649 62.9112 41.0436 64.2732 41.5811 65.5404C42.1184 66.8077 42.904 67.9547 43.8913 68.9139C44.8787 69.8731 46.0479 70.6251 47.3303 71.1256C48.6126 71.6261 49.9821 71.8651 51.3582 71.8285C52.7332 71.8627 54.1008 71.6188 55.3792 71.1114C56.6576 70.604 57.8204 69.8436 58.7976 68.8759C59.7749 67.9081 60.5467 66.7529 61.0665 65.4795C61.5864 64.2061 61.8438 62.8409 61.8231 61.4657C61.8277 60.0948 61.5572 58.737 61.0275 57.4727C60.4977 56.2083 59.7196 55.0632 58.7392 54.1051C57.7588 53.1469 56.596 52.3953 55.3199 51.8948C54.0437 51.3943 52.68 51.1549 51.3097 51.1911ZM51.2525 55.8855C52.3669 55.8714 53.4604 56.1891 54.3939 56.798C55.3273 57.4071 56.0587 58.2799 56.4949 59.3056C56.9311 60.3312 57.0526 61.4634 56.8437 62.5583C56.6349 63.653 56.1053 64.6611 55.3221 65.4541C54.539 66.2472 53.5377 66.7896 52.4456 67.0121C51.3535 67.2347 50.2199 67.1276 49.1888 66.7043C48.1577 66.2811 47.2758 65.5608 46.6551 64.6351C46.0343 63.7093 45.7029 62.62 45.7029 61.5053C45.6965 60.7715 45.8352 60.0436 46.111 59.3635C46.3868 58.6834 46.7942 58.0644 47.3099 57.5423C47.8255 57.02 48.4392 56.6048 49.1158 56.3205C49.7925 56.0362 50.5185 55.8883 51.2525 55.8855Z" fill="black"/>
<path d="M74.0402 51.1914C72.664 51.1613 71.2956 51.4066 70.0156 51.9133C68.7358 52.4198 67.57 53.1773 66.5872 54.141C65.6043 55.1048 64.8242 56.2556 64.2927 57.5253C63.7611 58.7951 63.489 60.1584 63.4922 61.535C63.4955 62.9114 63.774 64.2735 64.3115 65.5408C64.849 66.808 65.6345 67.9551 66.6218 68.9142C67.6092 69.8734 68.7785 70.6254 70.0608 71.126C71.3431 71.6265 72.7126 71.8655 74.0887 71.8288C75.4636 71.863 76.8313 71.6191 78.1097 71.1117C79.3881 70.6044 80.5508 69.8439 81.5281 68.8761C82.5055 67.9084 83.2772 66.7532 83.7971 65.4798C84.317 64.2064 84.5743 62.8412 84.5536 61.466C84.6899 59.569 84.1262 57.688 82.9689 56.1789L84.3167 55.7164V51.767H77.4105C76.3264 51.3908 75.1876 51.1962 74.0402 51.1914ZM73.983 55.8857C75.0975 55.8718 76.191 56.1894 77.1243 56.7984C78.0578 57.4074 78.7891 58.2802 79.2254 59.3058C79.6616 60.3316 79.783 61.4638 79.5742 62.5585C79.3654 63.6534 78.8356 64.6614 78.0526 65.4544C77.2694 66.2476 76.2681 66.7898 75.176 67.0125C74.0839 67.2351 72.9503 67.1279 71.9192 66.7047C70.8881 66.2814 70.0062 65.5612 69.3855 64.6353C68.7648 63.7096 68.4334 62.6202 68.4332 61.5057C68.427 60.7718 68.5656 60.0439 68.8414 59.3638C69.1171 58.6837 69.5246 58.0647 70.0402 57.5425C70.556 57.0202 71.1697 56.6052 71.8463 56.3208C72.5228 56.0365 73.2491 55.8886 73.983 55.8857Z" fill="black"/>
<path d="M79.6138 72.6423C79.6186 73.3822 79.477 74.1158 79.1971 74.8009C78.9173 75.4858 78.5047 76.1086 77.9832 76.6335C77.4617 77.1584 76.8415 77.575 76.1583 77.8593C75.4752 78.1436 74.7425 78.2899 74.0026 78.2899C73.2626 78.2899 72.5301 78.1436 71.8469 77.8593C71.1637 77.575 70.5435 77.1584 70.0219 76.6335C69.5005 76.1086 69.0879 75.4858 68.808 74.8009C68.5282 74.1158 68.3865 73.3822 68.3913 72.6423H63.4584C63.4357 74.0288 63.6961 75.4053 64.2238 76.6876C64.7515 77.97 65.5354 79.131 66.5274 80.0999C67.5194 81.0687 68.6987 81.825 69.9931 82.3222C71.2875 82.8195 72.6698 83.0474 74.0554 82.9919C75.4297 83.0276 76.7969 82.7852 78.0752 82.2791C79.3534 81.7732 80.5161 81.014 81.4935 80.0474C82.471 79.0807 83.243 77.9264 83.7631 76.6539C84.2832 75.3814 84.5408 74.0168 84.5203 72.6423H79.6138Z" fill="black"/>
<path d="M86.5 71.2881V51.7668H91.3625V71.2881H86.5Z" fill="black"/>
<path d="M96.0859 71.2882V56.1394H93.4785V51.7668H96.0859V45.7722H100.948V51.7668H103.626V56.1394H100.948V71.2882H96.0859Z" fill="black"/>
<path d="M92.1411 46.2224C92.1406 46.8592 91.9513 47.4815 91.5972 48.0106C91.2431 48.5399 90.74 48.9521 90.1516 49.1955C89.5632 49.4389 88.9158 49.5023 88.2915 49.3777C87.667 49.2531 87.0934 48.9463 86.6433 48.4959C86.1933 48.0455 85.8869 47.4718 85.7629 46.8472C85.6388 46.2226 85.7028 45.5753 85.9466 44.9872C86.1903 44.399 86.603 43.8962 87.1325 43.5425C87.662 43.1888 88.2844 43 88.9212 43C89.3442 43.0001 89.763 43.0837 90.1537 43.2457C90.5445 43.4077 90.8995 43.6451 91.1984 43.9443C91.4975 44.2435 91.7346 44.5987 91.8964 44.9896C92.0581 45.3805 92.1412 45.7994 92.1411 46.2224Z" fill="black"/>
<path d="M114.555 51.1782C113.179 51.1499 111.813 51.403 110.538 51.9218C109.264 52.4407 108.11 53.2143 107.145 54.1953C106.179 55.1763 105.426 56.3441 104.929 57.627C104.432 58.9097 104.201 60.2807 104.253 61.6555C104.195 63.0271 104.427 64.3952 104.934 65.6714C105.439 66.9476 106.207 68.1033 107.187 69.0637C108.169 70.0241 109.341 70.7676 110.627 71.2463C111.913 71.7249 113.286 71.9279 114.656 71.8419C116.309 71.894 117.953 71.5904 119.479 70.9516C121.003 70.3128 122.374 69.3537 123.496 68.1394L120.246 64.882C118.787 66.4097 116.822 67.3517 114.718 67.5311C113.497 67.5789 112.298 67.2004 111.327 66.4604C110.355 65.7204 109.671 64.6652 109.393 63.4759H124.544V62.136C124.544 56.7892 121.451 51.1782 114.555 51.1782ZM114.401 55.4625C115.595 55.3953 116.773 55.7736 117.704 56.5244C118.635 57.2752 119.256 58.3449 119.443 59.5265H109.261C109.499 58.3511 110.146 57.2979 111.087 56.554C112.027 55.81 113.202 55.4234 114.401 55.4625Z" fill="black"/>
<path d="M136.71 71.8447C135.335 71.8745 133.968 71.6297 132.688 71.1244C131.409 70.6191 130.243 69.8634 129.259 68.902C128.275 67.9404 127.494 66.7921 126.96 65.5246C126.425 64.2569 126.15 62.8956 126.148 61.5199C126.147 60.1444 126.42 58.7824 126.952 57.5137C127.483 56.2452 128.263 55.0953 129.244 54.1319C130.226 53.1684 131.391 52.4105 132.67 51.9028C133.947 51.395 135.314 51.1473 136.69 51.1746C138.282 51.1622 139.857 51.5055 141.299 52.1796C142.742 52.8535 144.015 53.8413 145.027 55.0704L141.635 58.4496C141.027 57.7054 140.273 57.0952 139.417 56.658C138.562 56.2206 137.626 55.9656 136.667 55.9089C135.928 55.8917 135.194 56.0239 134.508 56.2977C133.823 56.5716 133.199 56.9813 132.675 57.5023C132.152 58.0233 131.739 58.6448 131.462 59.3294C131.185 60.014 131.049 60.7476 131.063 61.4861C131.044 62.2261 131.176 62.9621 131.448 63.6504C131.72 64.3386 132.128 64.9652 132.648 65.4925C133.167 66.0198 133.787 66.4373 134.471 66.72C135.155 67.0026 135.889 67.1448 136.63 67.1381C137.594 67.0876 138.537 66.8358 139.398 66.3989C140.259 65.9621 141.019 65.3497 141.63 64.6015L145.056 67.9789C144.042 69.2057 142.766 70.1897 141.322 70.8588C139.878 71.5277 138.302 71.8646 136.71 71.8447Z" fill="black"/>
<path d="M146.822 71.3022V43.5154H151.685V53.7244C152.415 52.8833 153.327 52.2172 154.35 51.7758C155.373 51.3344 156.483 51.1289 157.597 51.1744C162.689 51.1744 165.638 54.9621 165.638 59.8067V71.3024H160.775V60.5421C160.849 59.9487 160.791 59.3465 160.609 58.7774C160.425 58.2084 160.118 57.6864 159.713 57.2477C159.306 56.8092 158.809 56.4646 158.254 56.2383C157.701 56.0119 157.106 55.9092 156.508 55.9372C155.859 55.8862 155.206 55.9772 154.595 56.2037C153.985 56.4302 153.43 56.7869 152.972 57.249C152.513 57.7111 152.161 58.2676 151.938 58.8798C151.716 59.492 151.629 60.1451 151.685 60.794V71.3022H146.822Z" fill="black"/>
</svg>
