<svg width="200" height="120" viewBox="0 0 200 120" fill="none" xmlns="http://www.w3.org/2000/svg">
<path fill-rule="evenodd" clip-rule="evenodd" d="M69.9563 74.317C74.4158 73.4319 77.1306 68.9512 77.8075 64.561C78.002 63.4881 76.5491 62.9021 75.5787 63.3907C74.6593 63.8527 73.8104 64.4441 73.0582 65.1469C70.8353 66.978 69.3257 69.5332 68.7932 72.3662C68.6005 73.3416 69.3748 74.4144 69.9563 74.3135V74.317ZM101.264 75.0978C101.778 75.1912 102.309 75.0805 102.744 74.7891C103.178 74.4977 103.483 74.0484 103.592 73.5363C104.118 71.621 103.945 69.5808 103.106 67.7811C102.816 68.0732 100.295 70.9995 99.5197 72.1696C99.0354 72.7556 99.9081 74.7065 101.264 75.0978ZM129.762 73.5363C130.053 74.5118 131.409 74.4215 132.088 74.0231C133.925 73.0895 135.484 71.6872 136.607 69.9574C137.731 68.2279 138.378 66.232 138.486 64.1714C138.486 63.3907 137.426 62.9021 136.542 63.2863C134.478 64.1521 132.745 65.6555 131.593 67.5776C130.894 68.3898 130.37 69.3375 130.053 70.3614C129.737 71.3854 129.634 72.4637 129.752 73.5293L129.762 73.5363ZM163.106 63.9767C165.302 62.3784 167.288 60.5103 169.019 58.4162C170.389 56.6492 171.47 54.6732 172.216 52.5636C170.452 53.9282 168.856 55.5003 167.467 57.246C165.806 59.3464 164.346 61.5987 163.106 63.9732V63.9767ZM90.5036 59.0039L90.6009 58.9066C91.5712 57.54 91.9583 55.6865 90.6009 55.012C90.4064 54.9128 90.1165 55.4988 90.1165 55.7909C89.935 56.3222 89.8755 56.8876 89.9425 57.4452C90.0096 58.0028 90.2014 58.538 90.5036 59.011V59.0039ZM88.5594 62.125C87.8686 61.0325 87.4393 59.795 87.3047 58.5089C87.17 57.2229 87.3339 55.9231 87.7834 54.711C88.752 52.2733 92.4356 51.3952 93.793 54.1268C95.2458 57.1504 93.1142 59.7917 92.5327 60.9548C92.3383 61.3442 94.2772 60.7601 94.956 60.7601C95.2674 60.7256 95.5822 60.7784 95.8654 60.9127C96.1485 61.0469 96.3889 61.2573 96.5598 61.5203C96.7306 61.7834 96.8251 62.0888 96.8327 62.4025C96.8405 62.7161 96.761 63.0258 96.6033 63.2969C94.3745 67.0039 90.5938 69.539 90.1095 74.0267C90.0122 75.1012 92.7271 74.5153 96.0218 71.7838C96.119 71.6864 101.934 64.5644 106.393 59.0039C107.362 57.7364 110.851 59.0039 109.688 60.6627C108.719 62.125 107.744 63.1995 107.17 64.0758C106.296 65.3452 108.525 66.2232 108.332 71.003C109.98 69.7355 112.693 67.9794 112.79 67.7846C115.603 61.9302 118.51 55.1022 121.32 49.0531C121.999 47.589 125.78 48.2724 124.907 50.2232C123.162 54.2242 121.32 58.5153 119.673 62.4189C120.785 61.8488 121.853 61.1979 122.871 60.4715C125.004 59.7881 125.875 61.6416 126.167 63.0066C126.943 66.1294 123.549 70.4207 121.999 73.4514C121.611 74.2321 122.484 73.8408 122.871 73.5487C124.004 72.8349 125.018 71.9458 125.875 70.9145C128.59 63.5005 137.507 57.7452 140.996 62.0364C141.288 61.647 141.578 61.061 141.675 61.061C142.451 60.2803 145.553 60.5742 145.068 62.0364C145.068 62.1338 141.869 68.475 140.119 71.7926C139.73 72.5732 140.119 74.5241 141.18 73.7399C142.724 72.5789 144.123 71.2363 145.347 69.7408C147.292 64.2777 153.587 53.254 162.019 48.7663C163.474 47.9856 166.084 48.9611 165.218 51.204C163.128 57.4002 159.035 62.7216 153.587 66.3259C153.491 66.4233 153.393 66.4233 153.393 66.5206C152.333 67.3013 149.129 69.1548 148.934 69.8382C148.593 70.908 148.494 72.0408 148.644 73.1539C149.129 74.8127 150.775 74.6179 151.939 73.7399C156.301 70.5215 157.948 65.6426 160.759 61.1548C162.964 57.4731 165.791 54.2027 169.113 51.489C170.761 50.1224 172.409 48.3663 174.637 48.6565C175.042 48.7256 175.406 48.9441 175.657 49.2691C175.909 49.5939 176.029 50.0014 175.994 50.4109C174.461 56.3532 170.937 61.5882 166.011 65.2407C164.068 66.8003 162.134 68.2644 160.39 69.4345C159.905 69.7285 158.839 75.8731 163.297 73.7275C165.431 72.7521 167.659 69.5319 168.92 67.9722C169.598 67.1916 170.664 68.2644 170.179 69.3371C168.901 72.0204 167.007 74.3634 164.654 76.1758C163.855 76.9352 162.86 77.4561 161.78 77.6801C160.702 77.9041 159.582 77.8221 158.547 77.4433C157.854 77.0706 157.257 76.5418 156.803 75.8985C156.349 75.2552 156.05 74.515 155.93 73.7363C154.349 75.6608 152.219 77.056 149.825 77.7355C149.239 77.968 148.603 78.0492 147.977 77.9713C147.351 77.8934 146.755 77.6592 146.243 77.2899C145.731 76.9206 145.321 76.4284 145.049 75.8585C144.777 75.2885 144.652 74.6592 144.686 74.0285C142.458 75.882 138.096 80.467 135.867 75.5898C133.346 76.9565 128.984 79.9802 125.979 75.0039C123.945 76.3706 121.521 78.81 119.196 77.346C118.453 76.9507 117.889 76.2863 117.619 75.4884C117.348 74.6906 117.392 73.8196 117.741 73.053C119.001 70.2205 121.521 65.639 121.715 65.347C122.006 64.761 121.23 64.4618 120.746 64.8584C118.71 66.5171 117.062 67.8838 116.965 68.0785C115.904 70.4189 113.96 74.6144 112.991 76.7529C112.41 78.1196 109.89 78.0223 109.211 77.0469C108.242 75.6802 109.599 74.3153 110.181 73.0459C107.369 74.9932 105.335 77.0469 102.33 77.631C101.17 77.9078 99.9493 77.7775 98.873 77.262C97.7967 76.7466 96.9294 75.8771 96.416 74.7986C93.6056 76.2626 90.4064 79.0915 87.4017 76.8485C84.7857 74.9012 86.1432 70.0187 92.1527 64.1662C92.1751 64.1488 92.1932 64.1265 92.2057 64.101C92.2182 64.0756 92.2246 64.0476 92.2246 64.0192C92.2246 63.9909 92.2182 63.9628 92.2057 63.9374C92.1932 63.9119 92.1751 63.8896 92.1527 63.8722L91.1823 63.4828C88.9536 66.5065 84.2041 73.8231 81.2967 75.8749C78.0975 78.0223 75.9641 78.6064 74.5112 75.8749C71.312 78.217 66.9498 78.6064 65.2052 74.8994C62.5893 77.0469 60.8447 78.5091 56.9668 77.7319C56.1191 77.4844 55.3716 76.9741 54.8317 76.2743C54.2918 75.5746 53.9873 74.7212 53.9621 73.8373C53.8183 70.9953 54.0136 68.1462 54.5436 65.3504C52.1203 69.4469 49.8914 74.0249 46.4979 77.5443C45.9163 78.1303 43.882 77.7391 44.0763 76.5688C44.8505 71.9838 47.371 65.5452 47.0812 61.2522C43.6875 68.8645 38.5511 80.6671 28.3738 77.2522C21.2012 74.8038 22.9404 61.8364 32.9286 65.8285C34.0917 66.3171 33.4129 68.4626 32.3471 68.0732C27.5006 66.1259 26.4348 74.2197 31.3785 74.5117C32.6378 74.5609 33.8872 74.2698 34.9955 73.669C36.1038 73.0682 37.0304 72.1798 37.6779 71.0968C44.269 61.0486 46.2079 51.2925 53.9621 39.6846C55.0225 38.0259 57.7428 39.6846 56.8695 41.4409C55.489 44.1967 54.354 47.0692 53.4778 50.025C52.2841 53.7105 51.6949 57.5655 51.7332 61.4398C56.8767 53.5372 62.0024 45.8294 69.373 39.3908C69.6647 39.0987 70.3433 39.196 70.8276 39.3908C70.991 39.4565 71.137 39.5591 71.2544 39.6905C71.3716 39.822 71.4571 39.9788 71.5039 40.1487C71.5508 40.3188 71.5579 40.4973 71.5245 40.6703C71.4912 40.8435 71.4185 41.0066 71.312 41.1469C63.5579 53.339 56.1909 65.8285 57.9371 73.2443C58.3261 74.8038 59.3919 74.5118 60.6521 74.317C62.354 73.5867 63.8499 72.4471 65.0073 70.9995C65.819 68.5892 67.2061 66.4139 69.0481 64.6628C70.8902 62.9116 73.1314 61.6375 75.577 60.9512C76.3871 60.7239 77.2423 60.7122 78.0582 60.9175C78.8741 61.1227 79.6224 61.5377 80.2291 62.1215C80.3931 61.7956 80.632 61.5136 80.9263 61.2986C81.2206 61.0835 81.5617 60.9415 81.9215 60.8845C82.2812 60.8274 82.6494 60.8568 82.9956 60.9703C83.3418 61.0838 83.6561 61.2782 83.9126 61.5372C84.0088 61.7172 84.0592 61.9182 84.0592 62.1223C84.0592 62.3265 84.0088 62.5275 83.9126 62.7075C82.0708 66.2197 80.5207 69.2433 78.679 72.4635C78.5817 72.7556 78.8733 73.2442 79.2605 73.1451C81.8782 72.2599 85.4644 66.6091 88.5664 62.1215L88.5594 62.125ZM151.755 64.175C153.865 62.8432 155.761 61.1982 157.377 59.2961C158.99 57.2375 160.326 54.9759 161.351 52.5689C159.454 54.0242 157.73 55.6934 156.214 57.5434C154.618 59.6788 153.129 61.8934 151.755 64.1785V64.175Z" fill="black"/>
</svg>
