<svg width="200" height="120" viewBox="0 0 200 120" fill="none" xmlns="http://www.w3.org/2000/svg">
<path d="M79.8759 72C74.8 72 70.096 70.4568 66.9544 67.5966C65.8331 66.5748 64.9395 65.3219 64.3334 63.9218C63.7274 62.5216 63.4227 61.0064 63.4399 59.4773C63.4368 57.9546 63.748 56.4483 64.3533 55.055C64.9586 53.6616 65.8446 52.4123 66.9544 51.3875C69.872 48.6897 75.024 47 79.8759 47C85.244 47 89.5415 48.3716 92.8253 51.3943C93.9322 52.4179 94.8136 53.6672 95.4119 55.0603C96.0103 56.4533 96.3119 57.9589 96.2973 59.4784C96.2892 60.9994 95.9773 62.5028 95.3806 63.8981C94.7838 65.2934 93.9146 66.5515 92.8253 67.5966C89.7666 70.4761 84.9607 72 79.8759 72V68.7045C82.4478 68.7677 84.9399 67.7963 86.8087 66.0022C87.6526 65.1517 88.3137 64.133 88.7505 63.0103C89.1873 61.8878 89.3902 60.6856 89.3466 59.4795C89.3727 58.2737 89.1617 57.0748 88.7259 55.9527C88.2902 54.8307 87.6384 53.8079 86.8087 52.9443C84.8997 51.2144 82.4298 50.2582 79.8703 50.2582C77.3108 50.2582 74.8408 51.2144 72.9319 52.9443C72.1053 53.8099 71.4559 54.8331 71.0215 55.9549C70.587 57.0765 70.376 58.2746 70.4007 59.4795C70.3786 60.6823 70.5908 61.8776 71.0252 62.997C71.4595 64.1164 72.1075 65.1376 72.9319 66.0022C74.8104 67.7876 77.3024 68.7574 79.8759 68.7045V72ZM42.8084 47.0125C39.9189 46.9949 37.0562 47.5749 34.3949 48.717C31.978 49.8068 30 51.575 30 54.5079C29.9942 56.0475 30.5697 57.5309 31.6084 58.6534C32.9261 59.9434 34.6011 60.7939 36.4087 61.0909C37.7325 61.384 40.5639 61.8352 43.3829 62.134C46.1829 62.4329 48.9348 62.7181 50.057 63.0057C50.953 63.233 52.4448 63.55 52.4448 65.2533C52.4175 65.7897 52.2238 66.3035 51.8912 66.7213C51.5587 67.1391 51.1045 67.4395 50.5935 67.5795C48.8243 68.2925 46.9298 68.6295 45.0271 68.5693C42.7745 68.5024 40.5429 68.1091 38.4 67.4011C36.8961 66.9357 35.5607 66.0309 34.5607 64.7999C34.0602 64.0754 33.783 63.2164 33.7644 62.3318H30.6832V71.0818H34.1048V69.8977C34.1049 69.81 34.128 69.7239 34.1716 69.6481C34.2152 69.5724 34.2779 69.5098 34.3532 69.4667C34.4285 69.4236 34.5137 69.4016 34.6001 69.4028C34.6866 69.404 34.7711 69.4286 34.8452 69.4738C36.459 70.1846 38.1372 70.7341 39.856 71.1148C41.5543 71.5473 43.2985 71.7671 45.0495 71.7693C47.4078 71.8138 49.7581 71.4778 52.0125 70.7738C53.5056 70.3563 54.9067 69.654 56.1408 68.7045C56.8361 68.1635 57.398 67.4661 57.7824 66.6673C58.1668 65.8685 58.3633 64.9901 58.3562 64.1012C58.3675 62.4115 57.7239 60.7852 56.5642 59.5727C55.9173 58.9377 55.1671 58.421 54.3466 58.0455C53.4691 57.6424 52.5579 57.3195 51.6239 57.0807C49.861 56.6409 45.8727 56.0999 43.9664 55.8966C41.6646 55.7347 39.3756 55.4199 37.1143 54.9545C36.764 54.8722 36.4498 54.676 36.2195 54.3958C35.9892 54.1156 35.8554 53.7666 35.8386 53.4023C35.8555 53.0212 35.9725 52.6518 36.1775 52.3321C36.3825 52.0124 36.668 51.7542 37.0045 51.5841C38.9716 50.6515 41.1323 50.217 43.3012 50.3182C45.8046 50.287 48.2875 50.7786 50.5957 51.7625C51.216 52.0368 51.7997 52.3897 52.3328 52.8125C53.2005 53.5645 53.8012 54.5844 54.0431 55.7159H56.8061V48.1034H53.7205V48.9886C53.7205 49.2738 53.4293 49.6454 52.8794 49.3386C49.7348 47.8127 46.2941 47.018 42.8084 47.0125ZM110.428 48.3954L125.481 62.1738L125.325 52.8966C125.311 51.6807 125.09 51.1727 123.792 51.1727H120.963V48.3977H133.833V51.1727H131.072C129.748 51.1727 129.665 51.6023 129.65 52.8966L129.883 70.6238H125.476L108.138 54.9284V66.0647C108.152 67.2761 108.209 67.8454 109.438 67.8454H112.529V70.6193H99.8947V67.8466H102.849C103.952 67.8466 103.909 66.7784 103.909 66.0022V53.0022C103.909 52.1637 103.797 51.175 102.06 51.175H99.664V48.3954H110.428ZM148.539 67.842C148.794 67.8425 149.048 67.8266 149.301 67.7942C149.432 67.7542 149.553 67.6856 149.655 67.5933C149.757 67.5011 149.838 67.3875 149.893 67.2602C149.932 67.0626 149.952 66.8617 149.952 66.6602V62.275C149.952 62.1693 149.944 62.1239 149.767 61.8886C149.573 61.6318 141.884 52.7977 141.532 52.4034C141.246 52.0389 140.886 51.7406 140.477 51.5284C140.068 51.3162 139.62 51.1949 139.161 51.1727H136.488V48.3966H151.582V51.1693H149.762C149.342 51.1693 149.062 51.575 149.426 52.025C149.426 52.025 154.504 58.1852 154.552 58.25C154.6 58.3147 154.639 58.3307 154.704 58.2716C154.769 58.2125 159.909 52.0807 159.95 52.033C160.012 51.9517 160.049 51.8542 160.057 51.7521C160.066 51.6501 160.045 51.5476 159.998 51.4571C159.951 51.3665 159.879 51.2915 159.791 51.2411C159.703 51.1907 159.603 51.167 159.502 51.1727H157.636V48.3966H170V51.1727H167.237C166.816 51.1349 166.393 51.213 166.012 51.3985C165.631 51.5841 165.306 51.8703 165.072 52.2273C164.727 52.6227 156.954 61.6204 156.744 61.8648C156.661 61.984 156.625 62.1302 156.642 62.275V66.6591C156.642 66.8602 156.662 67.0608 156.701 67.2579C156.756 67.3853 156.837 67.4989 156.94 67.5909C157.042 67.6829 157.164 67.7512 157.295 67.7909C157.545 67.8242 157.796 67.8405 158.048 67.8398H160.875V70.6159H145.861V67.8398H148.54L148.539 67.842Z" fill="black"/>
</svg>
